<svg width="24" height="24" viewBox="0 0 24 24" fill="none" xmlns="http://www.w3.org/2000/svg">
<circle cx="12" cy="12" r="12" fill="#01676C"/>
<path d="M12.8902 7.89992C12.5492 7.89992 12.2572 7.7784 12.0142 7.53536C11.7711 7.29232 11.6498 7.00051 11.6502 6.65992C11.6502 6.31892 11.7718 6.0269 12.0148 5.78386C12.2578 5.54082 12.5496 5.41951 12.8902 5.41992C13.2312 5.41992 13.5233 5.54144 13.7663 5.78448C14.0093 6.02752 14.1307 6.31934 14.1302 6.65992C14.1302 7.00092 14.0087 7.29294 13.7657 7.53598C13.5226 7.77902 13.2308 7.90034 12.8902 7.89992ZM16.9202 11.9299C16.9202 12.1056 16.8607 12.2529 16.7417 12.372C16.6226 12.491 16.4755 12.5503 16.3002 12.5499H15.6957L18.9352 18.2074C18.9869 18.2901 18.9999 18.3676 18.9743 18.4399C18.9487 18.5123 18.8943 18.5743 18.8112 18.6259C18.7286 18.6776 18.6511 18.6931 18.5787 18.6724C18.5064 18.6518 18.4444 18.6001 18.3927 18.5174L14.8742 12.3794C14.4609 12.2451 14.0864 12.0514 13.7508 11.7985C13.4152 11.5455 13.1283 11.238 12.8902 10.8759C12.7869 11.1756 12.7067 11.5193 12.6497 11.907C12.5926 12.2947 12.5747 12.6537 12.5957 12.9839L13.8202 14.7199V18.1299C13.8202 18.3056 13.7607 18.4529 13.6417 18.572C13.5226 18.691 13.3755 18.7503 13.2002 18.7499C13.0246 18.7499 12.8772 18.6904 12.7582 18.5714C12.6391 18.4523 12.5798 18.3052 12.5802 18.1299V15.6499L11.4797 14.0689L11.3402 16.2699L9.85224 18.2539C9.7489 18.3986 9.61457 18.4813 9.44924 18.5019C9.2839 18.5226 9.1289 18.4813 8.98424 18.3779C8.83957 18.2746 8.7569 18.1403 8.73624 17.9749C8.71557 17.8096 8.7569 17.6546 8.86024 17.5099L10.1002 15.8514V12.5499C10.1002 12.2296 10.1288 11.8756 10.1858 11.4879C10.2428 11.1002 10.3176 10.7515 10.4102 10.4419L9.48024 10.9689V12.5499C9.48024 12.7256 9.42072 12.8729 9.30168 12.992C9.18264 13.111 9.03549 13.1703 8.86024 13.1699C8.68457 13.1699 8.53722 13.1104 8.41818 12.9914C8.29914 12.8723 8.23982 12.7252 8.24024 12.5499V10.6124C8.24024 10.4988 8.26876 10.3927 8.3258 10.2944C8.38284 10.196 8.45765 10.1212 8.55024 10.0699L11.5882 8.34942C11.6709 8.29776 11.7587 8.26159 11.8517 8.24092C11.9447 8.22026 12.0429 8.20992 12.1462 8.20992C12.3942 8.20992 12.6216 8.27192 12.8282 8.39592C13.0349 8.51992 13.1899 8.69042 13.2932 8.90742L13.7737 9.94592C13.9804 10.4006 14.2956 10.7416 14.7192 10.9689C15.1429 11.1963 15.6699 11.3099 16.3002 11.3099C16.4759 11.3099 16.6233 11.3694 16.7423 11.4885C16.8613 11.6075 16.9207 11.7547 16.9202 11.9299Z" fill="white"/>
</svg>
