<svg width="561" height="309" viewBox="0 0 561 309" fill="none" xmlns="http://www.w3.org/2000/svg">
<path d="M545.87 119.648L539.934 134.679L544.143 136.307L550.079 121.276L545.87 119.648Z" fill="#CCE1E2"/>
<path d="M175.071 82.7924L171.705 85.7759L182.583 97.797L185.949 94.8135L175.071 82.7924Z" fill="#0CBC8B"/>
<path d="M224.945 136.597L211.895 146.271L214.604 149.851L227.655 140.176L224.945 136.597Z" fill="#CCE1E2"/>
<path d="M375.884 25.5766L372.787 28.8334L384.662 39.8928L387.759 36.636L375.884 25.5766Z" fill="#CCE1E2"/>
<path d="M289.539 29.1729L281.413 43.1638L285.33 45.3926L293.457 31.4017L289.539 29.1729Z" fill="#0CBC8B"/>
<path d="M407.549 148.818L403.728 151.205L412.429 164.852L416.25 162.465L407.549 148.818Z" fill="#0CBC8B"/>
<path d="M230.363 215.274L226.321 217.273L233.608 231.709L237.65 229.711L230.363 215.274Z" fill="#0CBC8B"/>
<path d="M171.225 177.29L166.543 192.748L170.871 194.032L175.553 178.574L171.225 177.29Z" fill="#CCE1E2"/>
<path d="M454.078 225.459L440.536 234.447L443.053 238.161L456.595 229.173L454.078 225.459Z" fill="#CCE1E2"/>
<path d="M456.105 3.42887e-05L447.979 13.9906L451.897 16.2193L460.023 2.22877L456.105 3.42887e-05Z" fill="#0CBC8B"/>
<path d="M4.42247 114.458L0.214111 116.086L6.15001 131.116L10.3584 129.488L4.42247 114.458Z" fill="#0CBC8B"/>
<path d="M441.278 95.8899L438.569 99.4695L451.619 109.144L454.328 105.565L441.278 95.8899Z" fill="#0CBC8B"/>
<path d="M74.7014 29.953L62.8264 41.0125L65.9229 44.2692L77.7978 33.2098L74.7014 29.953Z" fill="#CCE1E2"/>
<path d="M206.229 16.783L202.312 19.0118L210.439 33.0028L214.356 30.774L206.229 16.783Z" fill="#CCE1E2"/>
<path d="M46.4536 192.446L37.752 206.094L41.5731 208.48L50.2748 194.833L46.4536 192.446Z" fill="#0CBC8B"/>
<path d="M7.91202 229.831L5.39526 233.547L18.945 242.536L21.4617 238.82L7.91202 229.831Z" fill="#CCE1E2"/>
<path d="M530.667 51.6127L526.75 53.8414L534.876 67.832L538.794 65.6033L530.667 51.6127Z" fill="#CCE1E2"/>
<path d="M360.899 89.7403L350.021 101.761L353.387 104.745L364.265 92.7238L360.899 89.7403Z" fill="#CCE1E2"/>
<path d="M265.402 225.239L258.115 239.675L262.157 241.674L269.444 227.237L265.402 225.239Z" fill="#0CBC8B"/>
<path d="M324.541 187.255L320.213 188.539L324.895 203.997L329.223 202.713L324.541 187.255Z" fill="#CCE1E2"/>
<path d="M325.997 196.077L310.597 184.491C310.258 184.236 309.87 184.054 309.457 183.956C309.043 183.859 308.614 183.847 308.196 183.922C307.777 183.998 307.38 184.158 307.028 184.394C306.676 184.63 306.377 184.936 306.151 185.292C305.755 185.963 305.624 186.755 305.784 187.516C305.944 188.276 306.384 188.951 307.018 189.409L310.321 191.893L296.314 188.799C294.763 188.428 292.619 188.955 292.313 190.704C292.151 191.37 292.222 192.07 292.513 192.691C292.805 193.312 293.301 193.817 293.92 194.123C293.913 194.137 293.907 194.151 293.903 194.166C293.902 194.177 293.902 194.189 293.903 194.2L291.51 193.628C291.067 193.523 290.606 193.516 290.16 193.609C289.714 193.702 289.294 193.893 288.932 194.167C288.57 194.441 288.274 194.791 288.066 195.193C287.858 195.594 287.743 196.037 287.73 196.488C287.723 197.198 287.963 197.889 288.41 198.446C288.856 199.002 289.482 199.39 290.183 199.544L291.2 199.787C291.206 199.82 291.219 199.851 291.236 199.879C290.51 199.873 289.805 200.122 289.247 200.583C288.69 201.044 288.316 201.686 288.193 202.395C288.081 203.174 288.27 203.966 288.722 204.613C289.174 205.26 289.857 205.715 290.633 205.886L293.162 206.491C293.12 206.507 293.083 206.533 293.054 206.567C293.024 206.6 293.003 206.64 292.992 206.683C292.982 206.735 292.988 206.789 293.008 206.838C292.359 207.01 291.786 207.388 291.375 207.914C290.965 208.44 290.741 209.085 290.737 209.75C290.748 210.448 290.996 211.122 291.442 211.663C291.887 212.204 292.504 212.58 293.193 212.731L314.528 217.832C317.513 218.545 320.645 218.36 323.522 217.301C326.4 216.241 328.893 214.356 330.681 211.885C332.223 209.755 332.864 207.113 332.469 204.522C332.075 201.931 330.674 199.595 328.567 198.009L325.997 196.077Z" fill="#E98862"/>
<g opacity="0.2">
<path opacity="0.2" d="M307.769 197.255C307.751 197.326 307.706 197.387 307.643 197.425C307.58 197.463 307.505 197.476 307.433 197.46L294.115 194.497C294.078 194.489 294.044 194.474 294.014 194.453C293.984 194.432 293.958 194.405 293.938 194.374C293.918 194.343 293.905 194.308 293.898 194.272C293.892 194.236 293.893 194.199 293.901 194.163C293.909 194.127 293.925 194.093 293.946 194.063C293.967 194.033 293.994 194.008 294.026 193.988C294.057 193.968 294.092 193.955 294.129 193.949C294.165 193.943 294.203 193.943 294.239 193.952L307.556 196.914C307.593 196.922 307.627 196.937 307.658 196.959C307.688 196.98 307.714 197.007 307.734 197.038C307.753 197.069 307.767 197.104 307.773 197.14C307.779 197.177 307.778 197.214 307.77 197.25L307.769 197.255Z" fill="#0C0C0C"/>
</g>
<g opacity="0.2">
<path opacity="0.2" d="M306.613 203.104C306.595 203.175 306.55 203.237 306.486 203.275C306.423 203.314 306.347 203.326 306.274 203.309L291.411 200.005C291.375 199.997 291.341 199.982 291.31 199.961C291.28 199.94 291.254 199.913 291.234 199.882C291.214 199.85 291.201 199.816 291.195 199.779C291.188 199.743 291.19 199.706 291.198 199.67C291.217 199.599 291.262 199.537 291.325 199.498C291.388 199.459 291.464 199.445 291.537 199.459L306.399 202.762C306.436 202.77 306.47 202.785 306.501 202.807C306.531 202.828 306.557 202.855 306.577 202.886C306.597 202.917 306.61 202.952 306.616 202.988C306.622 203.025 306.621 203.062 306.613 203.098V203.104Z" fill="#0C0C0C"/>
</g>
<g opacity="0.2">
<path opacity="0.2" d="M305.397 209.446C305.38 209.517 305.334 209.578 305.272 209.617C305.209 209.655 305.133 209.667 305.061 209.651L293.206 207.016C293.132 207 293.069 206.956 293.029 206.893C292.989 206.831 292.975 206.755 292.992 206.682C293.008 206.61 293.053 206.547 293.116 206.507C293.179 206.468 293.256 206.455 293.329 206.471L305.185 209.106C305.221 209.114 305.256 209.129 305.286 209.15C305.317 209.171 305.343 209.198 305.363 209.229C305.382 209.261 305.396 209.295 305.402 209.332C305.408 209.368 305.407 209.405 305.399 209.441L305.397 209.446Z" fill="#0C0C0C"/>
</g>
<path d="M252.883 116.385L261.481 99.2341C261.67 98.8572 261.936 98.5234 262.263 98.254C262.589 97.9845 262.969 97.7853 263.377 97.669C263.786 97.5527 264.214 97.5218 264.635 97.5784C265.057 97.6349 265.461 97.7777 265.824 97.9976C266.48 98.4238 266.954 99.0761 267.152 99.8281C267.35 100.58 267.259 101.378 266.897 102.068L265.053 105.745L276.213 96.8164C277.436 95.8018 279.593 95.3317 280.652 96.765C281.096 97.2902 281.347 97.9488 281.364 98.6333C281.381 99.3179 281.163 99.988 280.746 100.534C280.759 100.543 280.77 100.554 280.781 100.565C280.787 100.575 280.792 100.585 280.797 100.596L282.684 99.0306C283.034 98.7411 283.444 98.5324 283.886 98.4198C284.327 98.3071 284.788 98.2934 285.236 98.3796C285.683 98.4658 286.106 98.6497 286.472 98.9179C286.839 99.1861 287.14 99.5319 287.354 99.93C287.679 100.564 287.774 101.289 287.624 101.983C287.474 102.678 287.087 103.301 286.528 103.747L285.725 104.413C285.734 104.445 285.737 104.478 285.733 104.511C286.381 104.186 287.125 104.099 287.831 104.267C288.537 104.435 289.16 104.845 289.589 105.426C290.038 106.075 290.224 106.868 290.109 107.647C289.994 108.426 289.586 109.133 288.968 109.627L286.973 111.28C287.018 111.276 287.063 111.283 287.105 111.3C287.147 111.317 287.184 111.343 287.213 111.377C287.245 111.419 287.265 111.47 287.269 111.523C287.927 111.392 288.611 111.478 289.215 111.769C289.818 112.06 290.309 112.54 290.61 113.133C290.914 113.763 290.994 114.476 290.838 115.157C290.681 115.838 290.297 116.446 289.748 116.884L272.922 130.833C270.568 132.784 267.679 133.996 264.625 134.311C261.572 134.627 258.492 134.033 255.781 132.605C253.445 131.374 251.685 129.29 250.876 126.796C250.067 124.301 250.272 121.593 251.448 119.245L252.883 116.385Z" fill="#E98862"/>
<g opacity="0.2">
<path opacity="0.2" d="M269.744 109.426C269.792 109.482 269.86 109.518 269.934 109.525C270.008 109.532 270.082 109.509 270.14 109.462L280.743 100.956C280.801 100.909 280.838 100.841 280.846 100.768C280.854 100.694 280.832 100.62 280.785 100.562C280.738 100.505 280.669 100.468 280.595 100.46C280.52 100.453 280.446 100.475 280.387 100.521L269.784 109.028C269.726 109.075 269.689 109.142 269.681 109.215C269.674 109.289 269.695 109.362 269.742 109.419L269.744 109.426Z" fill="#0C0C0C"/>
</g>
<g opacity="0.2">
<path opacity="0.2" d="M273.404 114.159C273.452 114.215 273.52 114.25 273.594 114.257C273.668 114.264 273.742 114.241 273.8 114.194L285.633 104.701C285.691 104.654 285.728 104.587 285.735 104.514C285.743 104.44 285.721 104.367 285.675 104.31C285.626 104.255 285.558 104.22 285.485 104.212C285.412 104.205 285.338 104.225 285.279 104.268L273.441 113.76C273.384 113.807 273.347 113.874 273.339 113.947C273.331 114.02 273.353 114.094 273.4 114.151L273.404 114.159Z" fill="#0C0C0C"/>
</g>
<g opacity="0.2">
<path opacity="0.2" d="M277.342 119.306C277.39 119.362 277.459 119.398 277.533 119.404C277.607 119.411 277.68 119.389 277.738 119.342L287.177 111.769C287.236 111.723 287.273 111.655 287.28 111.581C287.288 111.508 287.266 111.434 287.219 111.376C287.172 111.319 287.103 111.282 287.029 111.274C286.954 111.267 286.88 111.288 286.822 111.335L277.38 118.908C277.322 118.954 277.285 119.022 277.277 119.095C277.27 119.168 277.291 119.242 277.338 119.299L277.342 119.306Z" fill="#0C0C0C"/>
</g>
<path d="M59.9115 101.68C59.9115 101.68 58.6989 119.688 54.6058 126.219C42.8206 145.028 39.4064 166.187 51.2079 177.243C63.0095 188.298 138.283 188.451 143.986 163.025C148.787 141.618 138.485 139.316 135.977 121.659C134.843 113.669 131.723 96.9142 131.723 96.9142" fill="#0A0A0A"/>
<path d="M124.504 159.297C124.375 159.28 122.933 182.959 95.1381 180.895C75.8964 179.468 69.0358 159.262 68.5952 159.262C70.6697 158.826 74.163 158.191 75.0842 157.704C78.1144 156.093 81.8619 154.416 82.8401 148.593C83.4049 145.239 82.4475 128.065 82.7418 124.668L112.278 131.195C111.865 138.367 108.976 154.994 119.1 157.936C120.785 158.424 122.599 158.872 124.504 159.297Z" fill="#E98862"/>
<path opacity="0.5" d="M112.691 151.142C112.228 149.667 111.93 148.145 111.802 146.605C111.478 143.092 111.543 139.553 111.996 136.053C105.993 135.251 100.338 132.799 95.6728 128.975C95.1244 130.979 92.1078 139.739 92.9431 141.644C94.5206 145.245 101.938 151.142 112.691 151.142Z" fill="#0C0C0C"/>
<path d="M108.873 143.765C97.2282 144.883 82.1615 140.27 79.0404 124.922L76.2243 111.074C73.1032 95.7259 78.7179 81.6616 93.3186 78.7531C107.92 75.8464 121.363 86.1123 124.484 101.461L125.731 107.592C126.929 113.481 129.649 141.775 108.873 143.765Z" fill="#E98862"/>
<path opacity="0.1" d="M101.471 123.653C103.388 123.426 104.805 122.115 104.638 120.724C104.47 119.333 102.78 118.389 100.864 118.615C98.9478 118.841 97.5302 120.153 97.6979 121.544C97.8656 122.935 99.5551 123.879 101.471 123.653Z" fill="#0C0C0C"/>
<path opacity="0.1" d="M121.72 118.091C121.89 119.48 123.581 120.423 125.498 120.2C125.829 120.16 126.155 120.087 126.471 119.981C126.56 118.325 126.565 116.732 126.517 115.256C125.984 115.125 125.432 115.093 124.888 115.162C122.971 115.386 121.554 116.696 121.72 118.091Z" fill="#0C0C0C"/>
<path opacity="0.5" d="M113.253 122.385C113.262 122.384 113.271 122.382 113.281 122.38C113.873 122.258 114.457 122.104 115.032 121.918C115.889 121.634 117.008 121.168 116.855 120.4C116.677 119.526 112.336 110.573 111.844 109.556C111.824 109.51 111.794 109.469 111.758 109.434C111.721 109.4 111.678 109.373 111.63 109.356C111.583 109.338 111.532 109.33 111.482 109.333C111.431 109.335 111.382 109.347 111.336 109.369C111.291 109.39 111.25 109.421 111.216 109.459C111.183 109.496 111.158 109.54 111.142 109.588C111.126 109.635 111.12 109.685 111.124 109.735C111.128 109.785 111.143 109.834 111.166 109.878C113.017 113.691 115.998 119.96 116.118 120.549C116.024 120.823 114.602 121.359 113.134 121.652C113.085 121.66 113.039 121.677 112.997 121.703C112.955 121.728 112.918 121.762 112.889 121.801C112.86 121.841 112.84 121.886 112.828 121.933C112.817 121.981 112.815 122.03 112.823 122.078C112.831 122.126 112.848 122.173 112.874 122.214C112.9 122.256 112.934 122.292 112.974 122.32C113.014 122.349 113.059 122.369 113.107 122.381C113.155 122.392 113.205 122.394 113.254 122.386L113.253 122.385Z" fill="#0C0C0C"/>
<path d="M64.5741 116.046L77.664 113.515C87.552 109.423 90.3573 92.3674 90.3573 92.3674C90.3573 92.3674 102.56 103.87 131.726 96.9142C131.726 96.9142 125.39 56.6187 82.3253 68.8528C68.4396 72.7965 58.6036 86.8048 60.0664 105.359C61.0916 118.358 64.5741 116.046 64.5741 116.046Z" fill="#0A0A0A"/>
<path d="M80.8974 129.417C76.4603 130.301 71.908 126.319 71.0134 121.927C70.1187 117.534 73.2251 114.397 77.6622 113.513L80.5472 116L84.7115 128.657L80.8974 129.417Z" fill="#E98862"/>
<path d="M114.99 102.416C116.1 101.639 117.398 101.167 118.753 101.047C119.433 100.983 120.12 101.021 120.789 101.159C121.463 101.295 122.118 101.515 122.738 101.812L122.757 101.821C122.826 101.851 122.903 101.853 122.974 101.827C123.044 101.801 123.101 101.749 123.133 101.682C123.165 101.615 123.169 101.538 123.145 101.468C123.12 101.397 123.069 101.339 123.002 101.306C122.345 100.963 121.647 100.703 120.925 100.533C120.198 100.358 119.449 100.292 118.702 100.338C117.189 100.42 115.726 100.903 114.466 101.735C114.419 101.767 114.378 101.807 114.347 101.854C114.316 101.901 114.294 101.953 114.284 102.008C114.273 102.064 114.274 102.12 114.285 102.175C114.297 102.23 114.319 102.283 114.351 102.329C114.383 102.375 114.424 102.415 114.471 102.446C114.519 102.477 114.572 102.498 114.628 102.508C114.683 102.519 114.741 102.518 114.796 102.507C114.852 102.495 114.905 102.473 114.951 102.441L114.962 102.434L114.99 102.416Z" fill="#0C0C0C"/>
<path d="M103.032 104.051C101.545 103.759 100.007 103.866 98.5764 104.363C97.8695 104.604 97.2031 104.948 96.5996 105.385C95.9984 105.816 95.4545 106.321 94.9809 106.887C94.933 106.943 94.909 107.015 94.914 107.089C94.9189 107.162 94.9523 107.231 95.0072 107.28C95.0621 107.33 95.1343 107.356 95.2086 107.354C95.2828 107.352 95.3534 107.322 95.4056 107.27L95.4208 107.254C95.8779 106.744 96.3978 106.294 96.9684 105.912C97.533 105.531 98.1527 105.237 98.8063 105.039C100.104 104.635 101.486 104.579 102.812 104.877L102.845 104.885C102.956 104.912 103.073 104.893 103.171 104.834C103.269 104.775 103.339 104.68 103.366 104.57C103.393 104.46 103.375 104.344 103.315 104.247C103.255 104.15 103.159 104.081 103.048 104.054L103.032 104.051Z" fill="#0C0C0C"/>
<path d="M77.6714 113.302C86.4704 110.06 89.3904 104.046 90.2896 99.5706C90.8716 96.586 90.8171 93.5139 90.1298 90.5513L89.8575 90.6256C90.5346 93.5496 90.5869 96.5813 90.0112 99.5265C89.1233 103.929 86.245 109.846 77.5725 113.041L77.6714 113.302Z" fill="#0C0C0C"/>
<path d="M147.141 162.113L230.691 189.754L206.161 200.545L247.821 115.958L281.869 131.663L243.216 217.636C241.261 221.984 237.791 225.49 233.439 227.514C229.088 229.538 224.146 229.945 219.516 228.661L218.685 228.428L133.871 204.861L147.141 162.113Z" fill="#CCE1E2"/>
<path d="M94.6194 174.975C75.3642 174.077 74.5537 157.902 74.5537 157.902C74.5537 157.902 65.0131 158.513 58.6709 159.362C48.2876 160.752 41.4377 164.237 35.9862 169.631C30.9154 174.651 27.8282 180.081 31.095 214.748C33.4604 239.85 31.7959 295.064 31.7959 295.064H149.134C149.134 295.064 157.327 215.296 158.299 203.998C160.152 182.427 165.39 177.665 154.778 166.553C147.083 158.495 127.216 157.902 119.219 157.903C119.089 157.903 120.842 176.199 94.6194 174.975Z" fill="#CCE1E2"/>
<path d="M117.156 125.41C113.372 127.314 109.055 127.916 104.888 127.121C104.743 127.094 104.594 127.109 104.458 127.163C104.322 127.217 104.204 127.308 104.118 127.426C104.032 127.543 103.981 127.683 103.973 127.828C103.964 127.973 103.997 128.118 104.068 128.245C105.311 130.411 108.258 134.114 113.314 132.605C116.578 131.63 117.812 128.306 118.27 126.25C118.301 126.107 118.291 125.959 118.24 125.823C118.189 125.686 118.1 125.567 117.983 125.479C117.866 125.39 117.726 125.337 117.579 125.325C117.433 125.313 117.286 125.342 117.156 125.41Z" fill="white"/>
<path d="M117.393 108.756C118.403 108.756 119.221 107.946 119.221 106.947C119.221 105.948 118.403 105.138 117.393 105.138C116.383 105.138 115.565 105.948 115.565 106.947C115.565 107.946 116.383 108.756 117.393 108.756Z" fill="#0C0C0C"/>
<path d="M99.8234 111.8C100.833 111.8 101.652 110.99 101.652 109.991C101.652 108.991 100.833 108.181 99.8234 108.181C98.8137 108.181 97.9951 108.991 97.9951 109.991C97.9951 110.99 98.8137 111.8 99.8234 111.8Z" fill="#0C0C0C"/>
<path d="M158.038 211.857C158.026 211.858 158.014 211.858 158.003 211.857C157.928 211.848 157.861 211.81 157.815 211.752C157.769 211.693 157.748 211.619 157.757 211.546L159.574 196.968C159.578 196.932 159.59 196.896 159.608 196.864C159.626 196.832 159.65 196.804 159.68 196.781C159.709 196.758 159.743 196.742 159.779 196.732C159.815 196.723 159.852 196.721 159.889 196.726C159.926 196.73 159.961 196.742 159.994 196.76C160.026 196.778 160.054 196.802 160.077 196.831C160.1 196.86 160.117 196.893 160.127 196.929C160.137 196.964 160.139 197.001 160.135 197.038L158.318 211.615C158.309 211.682 158.275 211.743 158.224 211.788C158.173 211.832 158.107 211.857 158.038 211.857Z" fill="#0C0C0C"/>
<path d="M455.048 99.3755C455.048 99.3755 448.049 91.596 448.86 77.027C449.489 65.7465 458.281 74.8693 458.281 74.8693C458.281 74.8693 458.813 66.751 464.475 68.684C470.136 70.617 471.726 79.5687 471.726 79.5687" fill="#0C0C0C"/>
<path d="M494.385 75.5463C494.385 75.5463 522.655 84.3107 504.41 120.992L501.82 120.657L496.561 119.978" fill="#0C0C0C"/>
<path d="M454.168 159.238C454.298 159.221 455.734 182.821 483.437 180.764C502.615 179.342 509.453 159.205 509.892 159.205C507.824 158.769 504.342 158.137 503.424 157.652C500.404 156.046 496.668 154.375 495.694 148.571C495.133 145.225 496.085 128.112 495.792 124.726L466.354 131.229C466.766 138.378 469.644 154.95 459.554 157.883C457.875 158.368 456.065 158.814 454.168 159.238Z" fill="#E98862"/>
<path opacity="0.52" d="M465.942 151.11C466.403 149.639 466.699 148.123 466.827 146.588C467.151 143.086 467.086 139.559 466.635 136.071C472.618 135.272 478.255 132.827 482.905 129.016C483.451 131.014 486.458 139.744 485.625 141.643C484.052 145.233 476.658 151.11 465.942 151.11Z" fill="#0C0C0C"/>
<path d="M469.471 143.118C481.064 144.354 496.13 139.92 499.41 124.658L502.367 110.886C505.643 95.6253 500.204 81.5459 485.683 78.491C471.163 75.4361 457.653 85.5259 454.375 100.789L453.065 106.886C452.652 108.987 452.384 111.113 452.264 113.25C451.903 118.896 451.377 127.485 454.009 133.884C456.494 139.926 462.064 142.328 469.471 143.118Z" fill="#E98862"/>
<path d="M460.263 107.956C461.273 107.956 462.091 107.146 462.091 106.147C462.091 105.147 461.273 104.337 460.263 104.337C459.253 104.337 458.435 105.147 458.435 106.147C458.435 107.146 459.253 107.956 460.263 107.956Z" fill="#0C0C0C"/>
<path d="M477.627 109.766C478.637 109.766 479.455 108.955 479.455 107.956C479.455 106.957 478.637 106.147 477.627 106.147C476.617 106.147 475.799 106.957 475.799 107.956C475.799 108.955 476.617 109.766 477.627 109.766Z" fill="#0C0C0C"/>
<path d="M497.509 129.118C501.922 130.046 506.502 126.127 507.44 121.759C508.378 117.392 505.318 114.231 500.906 113.303L498.004 115.751L493.715 128.32L497.509 129.118Z" fill="#E98862"/>
<path d="M494.529 121.214C494.529 121.214 497.396 99.2676 491.031 96.6219C486.795 94.8599 474.83 98.9484 465.283 95.1176C461.107 93.4406 456.771 93.6922 455.943 95.6391C455.615 96.41 455.236 84.3279 463.801 76.9045C470.619 70.9937 488.73 72.5181 496.328 76.3964C517.367 87.1341 501.63 114.436 501.63 114.436L499.132 121.703L494.529 121.214Z" fill="#0C0C0C"/>
<g opacity="0.52">
<path opacity="0.52" d="M465.02 122.784L464.991 122.78C463.568 122.484 461.215 121.83 461.437 120.778C461.623 119.906 466.034 110.985 466.537 109.971C466.58 109.884 466.657 109.817 466.75 109.786C466.843 109.754 466.944 109.761 467.033 109.804C467.121 109.846 467.188 109.922 467.22 110.014C467.252 110.106 467.245 110.207 467.202 110.294C465.245 114.244 462.288 120.336 462.162 120.929C462.249 121.208 463.67 121.756 465.142 122.062C465.235 122.083 465.316 122.138 465.369 122.215C465.422 122.293 465.442 122.388 465.427 122.481C465.411 122.573 465.36 122.656 465.284 122.713C465.208 122.769 465.114 122.795 465.02 122.784Z" fill="#0C0C0C"/>
</g>
<path d="M464.692 100.486C463.294 99.788 461.731 99.4758 460.169 99.5823C459.402 99.6301 458.646 99.7916 457.926 100.061C457.215 100.325 456.54 100.677 455.917 101.108C455.813 101.173 455.739 101.277 455.712 101.396C455.684 101.515 455.705 101.64 455.769 101.744C455.834 101.848 455.938 101.923 456.057 101.952C456.177 101.981 456.304 101.962 456.41 101.9L456.443 101.881C457.013 101.531 457.627 101.253 458.267 101.054C458.899 100.854 459.558 100.75 460.221 100.746C461.532 100.727 462.825 101.051 463.968 101.686L464.011 101.711C464.091 101.758 464.18 101.789 464.272 101.802C464.364 101.815 464.458 101.81 464.548 101.787C464.639 101.764 464.723 101.724 464.798 101.669C464.872 101.613 464.935 101.544 464.982 101.464C465.029 101.384 465.06 101.296 465.073 101.205C465.085 101.114 465.08 101.021 465.056 100.932C465.032 100.842 464.991 100.759 464.934 100.685C464.877 100.612 464.807 100.551 464.726 100.505L464.692 100.486Z" fill="#0C0C0C"/>
<path d="M475.146 103.283C476.416 102.96 477.749 102.976 479.011 103.327C479.651 103.5 480.26 103.768 480.818 104.121C481.386 104.477 481.906 104.901 482.367 105.385L482.393 105.41C482.48 105.494 482.596 105.541 482.717 105.542C482.839 105.542 482.955 105.497 483.043 105.414C483.132 105.332 483.184 105.219 483.19 105.099C483.196 104.979 483.155 104.861 483.075 104.771C482.586 104.196 482.025 103.684 481.406 103.249C480.781 102.805 480.092 102.457 479.362 102.216C477.881 101.715 476.29 101.618 474.758 101.936C474.667 101.956 474.581 101.993 474.505 102.045C474.429 102.098 474.364 102.164 474.313 102.242C474.212 102.398 474.178 102.587 474.218 102.768C474.258 102.95 474.369 103.108 474.526 103.208C474.684 103.308 474.876 103.342 475.059 103.303L475.095 103.294L475.146 103.283Z" fill="#0C0C0C"/>
<path d="M462.782 126.17C466.9 127.189 471.243 126.82 475.126 125.122C475.26 125.064 475.409 125.045 475.554 125.067C475.699 125.089 475.835 125.152 475.945 125.248C476.055 125.344 476.136 125.468 476.177 125.608C476.219 125.747 476.219 125.895 476.179 126.035C475.456 128.422 473.422 132.687 468.153 132.334C464.751 132.107 462.797 129.14 461.884 127.237C461.821 127.105 461.797 126.958 461.816 126.814C461.834 126.669 461.894 126.532 461.989 126.42C462.083 126.308 462.208 126.225 462.349 126.18C462.489 126.136 462.64 126.133 462.782 126.17Z" fill="white"/>
<path d="M479.121 80.0314C481.088 75.46 480.139 70.6816 477.001 69.3585C473.863 68.0354 469.724 70.6687 467.757 75.2401C465.789 79.8115 466.738 84.5899 469.876 85.913C473.014 87.2361 477.153 84.6028 479.121 80.0314Z" fill="#0C0C0C"/>
<path d="M483.867 174.975C503.122 174.077 503.932 157.902 503.932 157.902C503.932 157.902 513.473 158.513 519.816 159.362C530.199 160.752 537.049 164.237 542.5 169.631C547.571 174.651 550.658 180.081 547.391 214.748C545.026 239.85 546.691 295.064 546.691 295.064H429.353C429.353 295.064 421.16 215.298 420.188 203.998C418.334 182.427 413.097 177.665 423.708 166.553C431.403 158.495 451.27 157.902 459.267 157.903C459.397 157.903 457.646 176.199 483.867 174.975Z" fill="#CCE1E2"/>
<path d="M419.91 171.549L389.573 235.202L329.746 190.675L305.984 221.949L385.204 280.909C385.912 281.43 386.653 281.908 387.421 282.34C389.685 283.595 392.176 284.397 394.752 284.699C397.329 285.001 399.94 284.798 402.438 284.102C404.935 283.405 407.269 282.229 409.307 280.639C411.345 279.05 413.046 277.079 414.315 274.838L414.658 274.233L460.942 192.47L419.91 171.549Z" fill="#CCE1E2"/>
<path d="M551.193 295.623H16.8431C16.6933 295.623 16.5497 295.564 16.4437 295.459C16.3378 295.354 16.2783 295.212 16.2783 295.064C16.2783 294.915 16.3378 294.773 16.4437 294.668C16.5497 294.564 16.6933 294.505 16.8431 294.505H551.193C551.342 294.505 551.486 294.564 551.592 294.668C551.698 294.773 551.757 294.915 551.757 295.064C551.757 295.212 551.698 295.354 551.592 295.459C551.486 295.564 551.342 295.623 551.193 295.623Z" fill="#292A2E"/>
<path d="M434.968 211.919H148.829V308.72H434.968V211.919Z" fill="white"/>
<path d="M435.251 309H148.547V211.639H435.251V309ZM149.112 308.441H434.686V212.198H149.112V308.441Z" fill="#0C0C0C"/>
<path d="M134.698 241.503L152.361 233.695C152.749 233.524 153.169 233.434 153.594 233.432C154.019 233.43 154.44 233.516 154.83 233.683C155.219 233.851 155.57 234.097 155.858 234.406C156.146 234.716 156.367 235.081 156.505 235.478C156.736 236.221 156.681 237.022 156.35 237.726C156.019 238.431 155.436 238.989 154.712 239.291L150.925 240.968L165.277 241.115C166.873 241.103 168.839 242.1 168.734 243.872C168.738 244.557 168.508 245.223 168.081 245.762C167.654 246.301 167.055 246.68 166.382 246.839C166.386 246.854 166.388 246.869 166.389 246.884C166.387 246.896 166.385 246.907 166.381 246.918L168.843 246.901C169.298 246.898 169.749 246.996 170.161 247.187C170.574 247.378 170.938 247.658 171.228 248.006C171.517 248.354 171.725 248.761 171.835 249.199C171.945 249.636 171.956 250.093 171.866 250.534C171.709 251.228 171.316 251.847 170.753 252.288C170.19 252.729 169.491 252.966 168.773 252.958L167.726 252.965C167.712 252.995 167.693 253.022 167.669 253.046C168.378 253.203 169.007 253.605 169.443 254.18C169.88 254.754 170.096 255.463 170.053 256.181C169.983 256.965 169.617 257.694 169.027 258.222C168.438 258.751 167.669 259.04 166.874 259.032L164.272 259.05C164.309 259.075 164.339 259.109 164.36 259.148C164.381 259.186 164.393 259.23 164.394 259.274C164.392 259.327 164.374 259.378 164.343 259.421C164.935 259.735 165.407 260.232 165.685 260.837C165.963 261.442 166.033 262.12 165.884 262.768C165.713 263.445 165.316 264.045 164.757 264.471C164.199 264.897 163.512 265.124 162.807 265.116L140.858 265.271C137.788 265.292 134.781 264.406 132.223 262.726C129.665 261.045 127.673 258.647 126.501 255.838C125.49 253.416 125.473 250.7 126.454 248.266C127.435 245.832 129.336 243.873 131.753 242.804L134.698 241.503Z" fill="#E98862"/>
<g opacity="0.2">
<path opacity="0.2" d="M152.175 246.761C152.176 246.835 152.207 246.905 152.259 246.956C152.312 247.008 152.383 247.037 152.458 247.037L166.107 247.158C166.182 247.159 166.254 247.13 166.307 247.078C166.361 247.026 166.391 246.955 166.392 246.881C166.392 246.807 166.363 246.736 166.311 246.683C166.258 246.63 166.187 246.6 166.112 246.599L152.463 246.477C152.388 246.477 152.316 246.507 152.263 246.559C152.21 246.612 152.18 246.683 152.18 246.757L152.175 246.761Z" fill="#0C0C0C"/>
</g>
<g opacity="0.2">
<path opacity="0.2" d="M151.954 252.719C151.955 252.793 151.985 252.863 152.038 252.915C152.091 252.966 152.162 252.995 152.236 252.995L167.468 253.131C167.543 253.131 167.615 253.101 167.668 253.049C167.721 252.997 167.751 252.926 167.751 252.851C167.748 252.778 167.718 252.708 167.665 252.657C167.613 252.605 167.542 252.574 167.468 252.572L152.236 252.436C152.199 252.436 152.162 252.443 152.127 252.457C152.093 252.47 152.061 252.491 152.035 252.517C152.008 252.543 151.987 252.574 151.973 252.608C151.958 252.642 151.951 252.679 151.951 252.716L151.954 252.719Z" fill="#0C0C0C"/>
</g>
<g opacity="0.2">
<path opacity="0.2" d="M151.68 259.167C151.681 259.24 151.711 259.31 151.764 259.362C151.817 259.414 151.888 259.443 151.963 259.443L164.113 259.551C164.188 259.552 164.26 259.523 164.314 259.471C164.367 259.419 164.397 259.348 164.398 259.274C164.399 259.2 164.37 259.129 164.317 259.076C164.265 259.023 164.193 258.993 164.118 258.992L151.968 258.884C151.893 258.884 151.821 258.913 151.768 258.965C151.715 259.018 151.685 259.089 151.685 259.163L151.68 259.167Z" fill="#0C0C0C"/>
</g>
<path d="M139.756 272.629L41.8265 294.662C38.5732 295.012 35.2822 294.612 32.2115 293.492C29.1409 292.372 26.3742 290.563 24.1286 288.207C21.883 285.852 20.2194 283.013 19.2686 279.914C18.3177 276.815 18.1053 273.54 18.6481 270.346L29.8549 181.13C30.787 175.648 33.8814 170.756 38.4574 167.532C43.0335 164.307 48.7163 163.014 54.2558 163.937C59.7953 164.859 64.7376 167.922 67.9956 172.451C71.2536 176.98 72.5603 182.604 71.6283 188.087L66.2316 251.943L134.27 236.704L139.756 272.629Z" fill="#CCE1E2"/>
<path d="M52.4603 254.452C52.3893 254.452 52.3212 254.425 52.2695 254.377C52.2177 254.329 52.1861 254.263 52.1809 254.193C52.1757 254.123 52.1973 254.054 52.2415 253.999C52.2856 253.944 52.3489 253.908 52.419 253.897L66.0652 251.013C66.1019 251.007 66.1394 251.008 66.1756 251.017C66.2117 251.026 66.2458 251.041 66.2757 251.063C66.3056 251.085 66.3307 251.113 66.3497 251.144C66.3686 251.176 66.381 251.211 66.386 251.248C66.397 251.321 66.3782 251.395 66.3337 251.455C66.2893 251.514 66.2228 251.554 66.1488 251.565L52.5026 254.449C52.4886 254.451 52.4744 254.452 52.4603 254.452Z" fill="#0C0C0C"/>
<path d="M44.7633 295.064C44.6884 295.069 44.6146 295.044 44.5582 294.995C44.5018 294.946 44.4674 294.877 44.4625 294.802C44.4576 294.728 44.4827 294.655 44.5322 294.599C44.5818 294.544 44.6517 294.51 44.7266 294.505L139.14 272.497L133.79 237.112L66.158 251.562C66.1142 251.568 66.0698 251.563 66.0282 251.549C65.9866 251.534 65.9488 251.511 65.9179 251.48C65.8871 251.448 65.8642 251.41 65.8511 251.368C65.8379 251.326 65.8349 251.282 65.8422 251.239L69.636 214.753C69.6417 214.717 69.6547 214.682 69.6742 214.651C69.6937 214.619 69.7194 214.592 69.7498 214.571C69.7801 214.549 69.8144 214.534 69.8508 214.526C69.8871 214.518 69.9247 214.517 69.9613 214.524C70.0352 214.536 70.1011 214.577 70.1445 214.638C70.1879 214.698 70.2053 214.773 70.1929 214.846L66.4652 250.957L133.922 236.496C133.958 236.486 133.996 236.483 134.033 236.488C134.071 236.493 134.107 236.505 134.139 236.524C134.172 236.543 134.2 236.568 134.223 236.598C134.245 236.627 134.262 236.661 134.271 236.698L139.757 272.626C139.774 272.696 139.763 272.771 139.726 272.833C139.689 272.896 139.628 272.942 139.557 272.961L44.8 295.061C44.7878 295.063 44.7755 295.064 44.7633 295.064Z" fill="#0C0C0C"/>
<path d="M443.787 258.273L426.124 250.465C425.736 250.294 425.316 250.204 424.891 250.202C424.466 250.2 424.045 250.285 423.656 250.453C423.266 250.621 422.916 250.867 422.627 251.176C422.339 251.485 422.119 251.85 421.981 252.248C421.749 252.991 421.804 253.792 422.135 254.496C422.466 255.201 423.05 255.759 423.773 256.061L427.561 257.738L413.208 257.885C411.612 257.873 409.646 258.87 409.752 260.642C409.747 261.327 409.977 261.993 410.404 262.532C410.831 263.071 411.43 263.45 412.104 263.609C412.099 263.623 412.097 263.639 412.096 263.654C412.098 263.665 412.1 263.677 412.104 263.688L409.643 263.671C409.187 263.668 408.737 263.765 408.324 263.956C407.911 264.148 407.547 264.427 407.257 264.775C406.968 265.123 406.76 265.531 406.65 265.968C406.54 266.406 406.529 266.862 406.619 267.304C406.777 267.998 407.169 268.617 407.732 269.058C408.295 269.499 408.994 269.735 409.712 269.727L410.76 269.735C410.774 269.765 410.793 269.792 410.816 269.816C410.108 269.973 409.479 270.375 409.042 270.949C408.605 271.524 408.389 272.233 408.432 272.951C408.503 273.735 408.869 274.464 409.458 274.992C410.048 275.521 410.817 275.81 411.612 275.801L414.214 275.82C414.177 275.845 414.147 275.878 414.126 275.917C414.104 275.956 414.093 275.999 414.092 276.043C414.094 276.096 414.111 276.147 414.142 276.19C413.55 276.504 413.079 277.002 412.801 277.607C412.522 278.211 412.452 278.89 412.602 279.538C412.773 280.215 413.17 280.815 413.728 281.241C414.287 281.667 414.974 281.894 415.679 281.886L437.628 282.04C440.698 282.062 443.705 281.176 446.263 279.495C448.821 277.814 450.814 275.415 451.985 272.606C452.996 270.184 453.013 267.468 452.032 265.034C451.051 262.6 449.15 260.641 446.733 259.572L443.787 258.273Z" fill="#E98862"/>
<g opacity="0.2">
<path opacity="0.2" d="M426.309 263.531C426.308 263.604 426.277 263.674 426.225 263.726C426.172 263.778 426.1 263.806 426.026 263.806L412.377 263.928C412.34 263.928 412.303 263.921 412.269 263.907C412.235 263.894 412.203 263.873 412.177 263.848C412.15 263.822 412.129 263.791 412.115 263.758C412.1 263.724 412.093 263.688 412.092 263.651C412.092 263.614 412.099 263.578 412.113 263.544C412.127 263.51 412.147 263.479 412.173 263.452C412.199 263.426 412.23 263.405 412.264 263.391C412.298 263.377 412.335 263.369 412.372 263.369L426.021 263.247C426.096 263.247 426.168 263.276 426.221 263.329C426.274 263.381 426.304 263.452 426.304 263.526L426.309 263.531Z" fill="#0C0C0C"/>
</g>
<g opacity="0.2">
<path opacity="0.2" d="M426.532 269.489C426.531 269.562 426.502 269.632 426.449 269.683C426.397 269.735 426.327 269.764 426.253 269.765L411.02 269.901C410.945 269.901 410.873 269.871 410.821 269.819C410.768 269.766 410.738 269.695 410.738 269.621C410.74 269.548 410.771 269.478 410.823 269.426C410.876 269.374 410.946 269.344 411.02 269.342L426.252 269.206C426.327 269.206 426.399 269.235 426.452 269.288C426.505 269.34 426.535 269.411 426.535 269.485L426.532 269.489Z" fill="#0C0C0C"/>
</g>
<g opacity="0.2">
<path opacity="0.2" d="M426.807 275.937C426.806 276.01 426.776 276.08 426.723 276.132C426.67 276.183 426.599 276.212 426.525 276.212L414.374 276.321C414.337 276.321 414.3 276.314 414.266 276.3C414.232 276.287 414.2 276.266 414.174 276.241C414.147 276.215 414.126 276.184 414.112 276.151C414.097 276.117 414.09 276.08 414.089 276.044C414.089 276.007 414.096 275.971 414.11 275.937C414.124 275.903 414.144 275.872 414.17 275.845C414.196 275.819 414.227 275.798 414.261 275.784C414.295 275.77 414.332 275.762 414.369 275.762L426.52 275.653C426.595 275.653 426.667 275.683 426.72 275.735C426.772 275.788 426.802 275.859 426.802 275.933L426.807 275.937Z" fill="#0C0C0C"/>
</g>
<path d="M444.379 289.399L536.661 294.662C539.914 295.012 543.205 294.612 546.276 293.492C549.346 292.372 552.113 290.563 554.359 288.207C556.604 285.852 558.268 283.013 559.219 279.914C560.169 276.815 560.382 273.54 559.839 270.346L548.634 181.128C548.173 178.413 547.176 175.815 545.7 173.482C544.224 171.148 542.298 169.126 540.032 167.529C537.766 165.933 535.205 164.793 532.494 164.176C529.783 163.56 526.977 163.477 524.234 163.934C521.491 164.391 518.866 165.378 516.508 166.838C514.151 168.299 512.107 170.205 510.494 172.448C508.881 174.69 507.73 177.225 507.106 179.908C506.483 182.591 506.4 185.369 506.861 188.084L512.258 255.853L444.784 253.471L444.379 289.399Z" fill="#CCE1E2"/>
<path d="M526.023 255.57C526.094 255.57 526.162 255.543 526.214 255.495C526.265 255.447 526.297 255.382 526.302 255.312C526.308 255.242 526.286 255.172 526.242 255.117C526.198 255.062 526.135 255.026 526.064 255.015L512.418 254.926C512.381 254.92 512.344 254.921 512.308 254.93C512.272 254.939 512.237 254.954 512.208 254.976C512.178 254.998 512.152 255.026 512.133 255.057C512.114 255.089 512.102 255.124 512.097 255.161C512.086 255.234 512.105 255.309 512.149 255.368C512.194 255.428 512.261 255.467 512.335 255.478L525.981 255.567C525.995 255.569 526.009 255.57 526.023 255.57Z" fill="#0C0C0C"/>
<path d="M533.725 295.064C533.799 295.069 533.873 295.044 533.93 294.995C533.986 294.946 534.02 294.876 534.025 294.802C534.03 294.728 534.005 294.655 533.955 294.599C533.906 294.544 533.836 294.51 533.761 294.505L444.994 289.269L445.26 253.885L512.328 255.478C512.371 255.483 512.416 255.478 512.457 255.464C512.499 255.45 512.537 255.426 512.568 255.395C512.598 255.363 512.621 255.325 512.634 255.283C512.648 255.242 512.651 255.197 512.643 255.154L508.85 214.756C508.844 214.719 508.831 214.684 508.812 214.653C508.792 214.622 508.767 214.595 508.736 214.573C508.706 214.552 508.672 214.537 508.635 214.529C508.599 214.521 508.561 214.52 508.525 214.526C508.488 214.532 508.453 214.546 508.422 214.565C508.39 214.584 508.363 214.61 508.341 214.64C508.32 214.67 508.304 214.703 508.296 214.739C508.288 214.775 508.287 214.812 508.293 214.848L512.023 254.872L445.131 253.268C445.095 253.258 445.057 253.255 445.02 253.26C444.982 253.265 444.946 253.277 444.914 253.296C444.881 253.315 444.853 253.34 444.831 253.37C444.808 253.4 444.792 253.434 444.782 253.47L444.379 289.398C444.362 289.468 444.373 289.543 444.41 289.606C444.447 289.668 444.508 289.714 444.578 289.733L533.686 295.058C533.698 295.061 533.711 295.063 533.725 295.064Z" fill="#0C0C0C"/>
<path d="M211.525 258.72C211.525 259.94 211.245 261.06 210.685 262.08C210.125 263.08 209.265 263.89 208.105 264.51C206.945 265.13 205.505 265.44 203.785 265.44H200.605V273H195.475V251.94H203.785C205.465 251.94 206.885 252.23 208.045 252.81C209.205 253.39 210.075 254.19 210.655 255.21C211.235 256.23 211.525 257.4 211.525 258.72ZM203.395 261.36C204.375 261.36 205.105 261.13 205.585 260.67C206.065 260.21 206.305 259.56 206.305 258.72C206.305 257.88 206.065 257.23 205.585 256.77C205.105 256.31 204.375 256.08 203.395 256.08H200.605V261.36H203.395ZM212.842 264.6C212.842 262.88 213.162 261.37 213.802 260.07C214.462 258.77 215.352 257.77 216.472 257.07C217.592 256.37 218.842 256.02 220.222 256.02C221.402 256.02 222.432 256.26 223.312 256.74C224.212 257.22 224.902 257.85 225.382 258.63V256.26H230.512V273H225.382V270.63C224.882 271.41 224.182 272.04 223.282 272.52C222.402 273 221.372 273.24 220.192 273.24C218.832 273.24 217.592 272.89 216.472 272.19C215.352 271.47 214.462 270.46 213.802 269.16C213.162 267.84 212.842 266.32 212.842 264.6ZM225.382 264.63C225.382 263.35 225.022 262.34 224.302 261.6C223.602 260.86 222.742 260.49 221.722 260.49C220.702 260.49 219.832 260.86 219.112 261.6C218.412 262.32 218.062 263.32 218.062 264.6C218.062 265.88 218.412 266.9 219.112 267.66C219.832 268.4 220.702 268.77 221.722 268.77C222.742 268.77 223.602 268.4 224.302 267.66C225.022 266.92 225.382 265.91 225.382 264.63ZM239.02 259.05C239.62 258.13 240.37 257.41 241.27 256.89C242.17 256.35 243.17 256.08 244.27 256.08V261.51H242.86C241.58 261.51 240.62 261.79 239.98 262.35C239.34 262.89 239.02 263.85 239.02 265.23V273H233.89V256.26H239.02V259.05ZM255.719 268.65V273H253.109C251.249 273 249.799 272.55 248.759 271.65C247.719 270.73 247.199 269.24 247.199 267.18V260.52H245.159V256.26H247.199V252.18H252.329V256.26H255.689V260.52H252.329V267.24C252.329 267.74 252.449 268.1 252.689 268.32C252.929 268.54 253.329 268.65 253.889 268.65H255.719ZM268.443 256.08C270.403 256.08 271.963 256.72 273.123 258C274.303 259.26 274.893 261 274.893 263.22V273H269.793V263.91C269.793 262.79 269.503 261.92 268.923 261.3C268.343 260.68 267.563 260.37 266.583 260.37C265.603 260.37 264.823 260.68 264.243 261.3C263.663 261.92 263.373 262.79 263.373 263.91V273H258.243V256.26H263.373V258.48C263.893 257.74 264.593 257.16 265.473 256.74C266.353 256.3 267.343 256.08 268.443 256.08ZM293.904 264.36C293.904 264.84 293.874 265.34 293.814 265.86H282.204C282.284 266.9 282.614 267.7 283.194 268.26C283.794 268.8 284.524 269.07 285.384 269.07C286.664 269.07 287.554 268.53 288.054 267.45H293.514C293.234 268.55 292.724 269.54 291.984 270.42C291.264 271.3 290.354 271.99 289.254 272.49C288.154 272.99 286.924 273.24 285.564 273.24C283.924 273.24 282.464 272.89 281.184 272.19C279.904 271.49 278.904 270.49 278.184 269.19C277.464 267.89 277.104 266.37 277.104 264.63C277.104 262.89 277.454 261.37 278.154 260.07C278.874 258.77 279.874 257.77 281.154 257.07C282.434 256.37 283.904 256.02 285.564 256.02C287.184 256.02 288.624 256.36 289.884 257.04C291.144 257.72 292.124 258.69 292.824 259.95C293.544 261.21 293.904 262.68 293.904 264.36ZM288.654 263.01C288.654 262.13 288.354 261.43 287.754 260.91C287.154 260.39 286.404 260.13 285.504 260.13C284.644 260.13 283.914 260.38 283.314 260.88C282.734 261.38 282.374 262.09 282.234 263.01H288.654ZM301.407 259.05C302.007 258.13 302.757 257.41 303.657 256.89C304.557 256.35 305.557 256.08 306.657 256.08V261.51H305.247C303.967 261.51 303.007 261.79 302.367 262.35C301.727 262.89 301.407 263.85 301.407 265.23V273H296.277V256.26H301.407V259.05ZM315.586 273.24C314.126 273.24 312.826 272.99 311.686 272.49C310.546 271.99 309.646 271.31 308.986 270.45C308.326 269.57 307.956 268.59 307.876 267.51H312.946C313.006 268.09 313.276 268.56 313.756 268.92C314.236 269.28 314.826 269.46 315.526 269.46C316.166 269.46 316.656 269.34 316.996 269.1C317.356 268.84 317.536 268.51 317.536 268.11C317.536 267.63 317.286 267.28 316.786 267.06C316.286 266.82 315.476 266.56 314.356 266.28C313.156 266 312.156 265.71 311.356 265.41C310.556 265.09 309.866 264.6 309.286 263.94C308.706 263.26 308.416 262.35 308.416 261.21C308.416 260.25 308.676 259.38 309.196 258.6C309.736 257.8 310.516 257.17 311.536 256.71C312.576 256.25 313.806 256.02 315.226 256.02C317.326 256.02 318.976 256.54 320.176 257.58C321.396 258.62 322.096 260 322.276 261.72H317.536C317.456 261.14 317.196 260.68 316.756 260.34C316.336 260 315.776 259.83 315.076 259.83C314.476 259.83 314.016 259.95 313.696 260.19C313.376 260.41 313.216 260.72 313.216 261.12C313.216 261.6 313.466 261.96 313.966 262.2C314.486 262.44 315.286 262.68 316.366 262.92C317.606 263.24 318.616 263.56 319.396 263.88C320.176 264.18 320.856 264.68 321.436 265.38C322.036 266.06 322.346 266.98 322.366 268.14C322.366 269.12 322.086 270 321.526 270.78C320.986 271.54 320.196 272.14 319.156 272.58C318.136 273.02 316.946 273.24 315.586 273.24ZM335.461 256.08C337.381 256.08 338.921 256.72 340.081 258C341.241 259.26 341.821 261 341.821 263.22V273H336.721V263.91C336.721 262.79 336.431 261.92 335.851 261.3C335.271 260.68 334.491 260.37 333.511 260.37C332.531 260.37 331.751 260.68 331.171 261.3C330.591 261.92 330.301 262.79 330.301 263.91V273H325.171V250.8H330.301V258.51C330.821 257.77 331.531 257.18 332.431 256.74C333.331 256.3 334.341 256.08 335.461 256.08ZM347.633 254.52C346.733 254.52 345.993 254.26 345.413 253.74C344.853 253.2 344.573 252.54 344.573 251.76C344.573 250.96 344.853 250.3 345.413 249.78C345.993 249.24 346.733 248.97 347.633 248.97C348.513 248.97 349.233 249.24 349.793 249.78C350.373 250.3 350.663 250.96 350.663 251.76C350.663 252.54 350.373 253.2 349.793 253.74C349.233 254.26 348.513 254.52 347.633 254.52ZM350.183 256.26V273H345.053V256.26H350.183ZM358.697 258.63C359.197 257.85 359.887 257.22 360.767 256.74C361.647 256.26 362.677 256.02 363.857 256.02C365.237 256.02 366.487 256.37 367.607 257.07C368.727 257.77 369.607 258.77 370.247 260.07C370.907 261.37 371.237 262.88 371.237 264.6C371.237 266.32 370.907 267.84 370.247 269.16C369.607 270.46 368.727 271.47 367.607 272.19C366.487 272.89 365.237 273.24 363.857 273.24C362.697 273.24 361.667 273 360.767 272.52C359.887 272.04 359.197 271.42 358.697 270.66V280.98H353.567V256.26H358.697V258.63ZM366.017 264.6C366.017 263.32 365.657 262.32 364.937 261.6C364.237 260.86 363.367 260.49 362.327 260.49C361.307 260.49 360.437 260.86 359.717 261.6C359.017 262.34 358.667 263.35 358.667 264.63C358.667 265.91 359.017 266.92 359.717 267.66C360.437 268.4 361.307 268.77 362.327 268.77C363.347 268.77 364.217 268.4 364.937 267.66C365.657 266.9 366.017 265.88 366.017 264.6Z" fill="#01676C"/>
</svg>
