<svg width="150" height="145" viewBox="0 0 150 145" fill="none" xmlns="http://www.w3.org/2000/svg">
<path d="M118.083 119.918C117.666 119.561 116.737 118.429 117.454 117.112C117.716 116.63 118.274 116.391 118.78 116.178C119.285 115.965 119.816 115.781 120.233 115.425C121.022 114.754 121.239 113.64 121.762 112.746C122.363 111.719 123.484 110.949 124.669 111.003C126.025 111.065 127.157 112.173 127.669 113.436C128.182 114.699 128.2 116.102 128.211 117.466C128.217 118.22 128.183 119.071 127.629 119.58C127.119 120.05 126.35 120.055 125.658 120.034C123.187 119.958 120.716 119.882 118.245 119.806" fill="#F5F5F5"/>
<path d="M132.261 99.5341H112.766L116.278 120.474C116.432 121.388 117.093 122.093 117.942 122.338C117.965 122.345 117.988 122.35 118.011 122.356C118.069 122.371 118.125 122.391 118.184 122.401C118.313 122.428 118.446 122.441 118.581 122.447L118.584 122.467L118.679 122.452H127.368C127.532 122.452 127.691 122.435 127.846 122.404C128.872 122.246 129.693 121.422 129.818 120.358L131.511 105.93L131.587 105.356H131.578L132.248 99.6427L132.261 99.5341ZM128.584 112.891H126.583L126.785 106.814H129.103L128.584 112.891ZM129.297 106.814H131.212L130.499 112.891H128.778L129.297 106.814ZM123.581 119.628L123.46 114.348H126.341L126.165 119.628H123.581ZM120.467 114.348H123.266L123.388 119.628H120.877L120.467 114.348ZM120.683 119.628H118.336C118.113 118.202 117.823 116.35 117.509 114.348H120.273L120.683 119.628ZM120.353 112.891L119.881 106.814H123.093L123.233 112.891H120.353ZM123.426 112.891L123.286 106.814H126.591L126.389 112.891H123.426ZM123.253 105.356L123.123 99.7285H126.826L126.639 105.356H123.253ZM123.059 105.356H119.768L119.33 99.7285H122.929L123.059 105.356ZM119.574 105.356H116.092C115.968 104.579 115.851 103.843 115.746 103.181C115.383 100.906 115.246 100.05 115.17 99.7285H119.136L119.574 105.356ZM119.687 106.814L120.159 112.891H117.28C117.183 112.274 117.085 111.651 116.987 111.026C116.761 109.592 116.535 108.158 116.322 106.814H119.687ZM117.084 112.891H115.203L114.183 106.814H116.126C116.423 108.692 116.753 110.782 117.084 112.891ZM117.313 114.348C117.6 116.175 117.882 117.977 118.14 119.628H116.333L115.447 114.348H117.313ZM126.359 119.628L126.534 114.348H128.459L128.008 119.628H126.359ZM126.833 105.356L127.02 99.7285H129.708L129.227 105.356H126.833ZM114.986 99.7285C115.063 100.135 115.419 102.35 115.896 105.356H113.939L112.995 99.7285H114.986ZM129.709 119.628H128.202L128.653 114.348H130.328L129.709 119.628ZM131.383 105.356H129.421L129.902 99.7285H132.044L131.383 105.356Z" fill="#E0E0E0"/>
<path d="M68.325 0.000732422H63.2461V122.296H68.325V0.000732422Z" fill="#E0E0E0"/>
<path d="M63.2462 5.1602H12.6812V122.296H63.2462V5.1602Z" fill="#EBEBEB"/>
<path d="M14.0982 0.000915527H9.41895V122.296H14.0982V0.000915527Z" fill="#E0E0E0"/>
<path d="M68.325 0.000915527H9.41895V5.16039H68.325V0.000915527Z" fill="#E0E0E0"/>
<path d="M68.325 0.000722425C68.3315 0.00867291 68.2635 0.0810892 68.1355 0.20603C67.9816 0.352044 67.799 0.525263 67.5869 0.726483C67.0926 1.1895 66.4636 1.77879 65.7679 2.43047C65.0616 3.10023 64.4314 3.71666 63.9993 4.18504C63.7833 4.41899 63.6169 4.61625 63.5158 4.76146C63.4642 4.83385 63.4334 4.89384 63.4119 4.93526C63.3993 4.97759 63.3892 5.00205 63.3843 5.00212C63.3794 5.00218 63.3788 4.97734 63.3841 4.92574C63.3974 4.87852 63.4224 4.80929 63.4683 4.72982C63.5581 4.5695 63.7153 4.35864 63.9236 4.11326C64.3404 3.62196 64.9619 2.99093 65.6697 2.31964C66.3775 1.64864 67.0362 1.06235 67.5196 0.646148C67.7614 0.438159 67.9596 0.272891 68.0989 0.161552C68.2381 0.0502134 68.3186 -0.00719613 68.325 0.000722425Z" fill="#EBEBEB"/>
<path d="M14.0981 5.26641C14.0686 5.29451 12.9971 4.1385 11.7052 2.68471C10.4128 1.23041 9.38933 0.0290578 9.41884 0.000927776C9.44837 -0.0271384 10.5196 1.12862 11.812 2.58292C13.104 4.03671 14.1276 5.23831 14.0981 5.26641Z" fill="#EBEBEB"/>
<path d="M17.1268 74.1028C16.1872 74.1028 15.4255 73.3411 15.4255 72.4015V60.1603C15.4255 59.2207 16.1872 58.459 17.1268 58.459C18.0665 58.459 18.8282 59.2207 18.8282 60.1603V72.4015C18.8282 73.3411 18.0665 74.1028 17.1268 74.1028Z" fill="#E0E0E0"/>
<path d="M17.8177 70.2612C17.8177 69.9334 17.561 69.6676 17.2443 69.6676C16.9276 69.6676 16.6709 69.9334 16.6709 70.2612C16.6709 70.4927 16.8001 70.691 16.9868 70.7889V71.4782C16.9868 71.6254 17.1021 71.7447 17.2443 71.7447C17.3865 71.7447 17.5018 71.6254 17.5018 71.4782V70.7889C17.6885 70.691 17.8177 70.4927 17.8177 70.2612Z" fill="#EBEBEB"/>
<path d="M25.6472 63.728H17.8832C17.4406 63.728 17.0818 64.0869 17.0818 64.5295V64.7975C17.0818 65.2401 17.4406 65.5989 17.8832 65.5989H25.6472C26.0898 65.5989 26.4486 65.2401 26.4486 64.7975V64.5295C26.4486 64.0869 26.0898 63.728 25.6472 63.728Z" fill="#E0E0E0"/>
<path d="M20.4851 65.6523C20.4847 65.6636 20.3833 65.6685 20.2005 65.6777C19.9849 65.6875 19.7268 65.6992 19.4254 65.7129C19.0977 65.723 18.7034 65.7325 18.2669 65.6721C18.0508 65.6393 17.8189 65.5993 17.5917 65.4959C17.3678 65.3945 17.1462 65.2297 17.0124 64.9821C16.8829 64.7344 16.8638 64.4342 16.9758 64.1868C17.0294 64.0649 17.1271 63.9569 17.2351 63.8961C17.3406 63.8319 17.4484 63.7914 17.5541 63.7551C17.9796 63.6088 18.3855 63.619 18.7104 63.6141C19.0396 63.6159 19.3046 63.6313 19.4876 63.643C19.6705 63.6553 19.7716 63.6662 19.7715 63.6766C19.7718 63.7011 19.3645 63.7024 18.7122 63.7203C18.3864 63.7389 17.9959 63.7405 17.5961 63.8866C17.3975 63.9598 17.1872 64.0459 17.1044 64.2497C17.0158 64.4461 17.0308 64.7039 17.1397 64.9097C17.2515 65.1175 17.4453 65.2673 17.6496 65.3613C17.8542 65.4573 18.0756 65.4994 18.2861 65.535C18.7082 65.6011 19.0976 65.6032 19.4241 65.6066C20.0785 65.6035 20.4864 65.6296 20.4851 65.6523Z" fill="#EBEBEB"/>
<path d="M57.0147 12.1409H20.7292V49.701H57.0147V12.1409Z" fill="#FAFAFA"/>
<path d="M139.883 0.000732422H96.8638V67.9867H139.883V0.000732422Z" fill="#E0E0E0"/>
<path d="M138.578 1.27779H98.0225V66.8691H138.578V1.27779Z" fill="#F5F5F5"/>
<path d="M134.471 5.09865H118.3V30.1919H134.471V5.09865Z" fill="white"/>
<path d="M127.246 7.31717C127.246 7.65058 126.976 7.9208 126.642 7.9208C126.309 7.9208 126.039 7.65058 126.039 7.31717C126.039 6.98383 126.309 6.71364 126.642 6.71364C126.976 6.71364 127.246 6.98383 127.246 7.31717Z" fill="#E0E0E0"/>
<path d="M118.174 37.1756H102.003V62.2689H118.174V37.1756Z" fill="white"/>
<path d="M110.949 39.3942C110.949 39.7275 110.679 39.9978 110.345 39.9978C110.012 39.9978 109.742 39.7275 109.742 39.3942C109.742 39.0609 110.012 38.7906 110.345 38.7906C110.679 38.7906 110.949 39.0609 110.949 39.3942Z" fill="#E0E0E0"/>
<path d="M115.595 5.09865H101.784V24.6937H115.595V5.09865Z" fill="white"/>
<path d="M109.191 6.87833C109.191 7.15525 108.966 7.37965 108.689 7.37965C108.412 7.37965 108.188 7.15525 108.188 6.87833C108.188 6.60147 108.412 6.377 108.689 6.377C108.966 6.377 109.191 6.60147 109.191 6.87833Z" fill="#E0E0E0"/>
<path d="M135.003 37.5209L120.233 39.1871L121.156 47.3705L135.926 45.7043L135.003 37.5209Z" fill="white"/>
<path d="M128.304 39.9056C128.304 40.1881 128.075 40.4171 127.793 40.4171C127.51 40.4171 127.281 40.1881 127.281 39.9056C127.281 39.6232 127.51 39.3942 127.793 39.3942C128.075 39.3942 128.304 39.6232 128.304 39.9056Z" fill="#E0E0E0"/>
<path d="M116.016 42.8992C116.016 42.9658 113.477 43.0197 110.345 43.0197C107.212 43.0197 104.674 42.9658 104.674 42.8992C104.674 42.8327 107.212 42.7787 110.345 42.7787C113.477 42.7787 116.016 42.8327 116.016 42.8992Z" fill="#E0E0E0"/>
<path d="M116.016 44.6946C116.016 44.7611 113.477 44.8151 110.345 44.8151C107.212 44.8151 104.674 44.7611 104.674 44.6946C104.674 44.628 107.212 44.5741 110.345 44.5741C113.477 44.5741 116.016 44.628 116.016 44.6946Z" fill="#E0E0E0"/>
<path d="M116.016 46.49C116.016 46.5565 113.477 46.6104 110.345 46.6104C107.212 46.6104 104.674 46.5565 104.674 46.49C104.674 46.4234 107.212 46.3695 110.345 46.3695C113.477 46.3695 116.016 46.4234 116.016 46.49Z" fill="#E0E0E0"/>
<path d="M116.016 48.2853C116.016 48.3518 113.477 48.4058 110.345 48.4058C107.212 48.4058 104.674 48.3518 104.674 48.2853C104.674 48.2188 107.212 48.1648 110.345 48.1648C113.477 48.1648 116.016 48.2188 116.016 48.2853Z" fill="#E0E0E0"/>
<path d="M116.016 50.0806C116.016 50.1472 113.477 50.2011 110.345 50.2011C107.212 50.2011 104.674 50.1472 104.674 50.0806C104.674 50.0141 107.212 49.9602 110.345 49.9602C113.477 49.9602 116.016 50.0141 116.016 50.0806Z" fill="#E0E0E0"/>
<path d="M116.016 51.876C116.016 51.9426 113.477 51.9965 110.345 51.9965C107.212 51.9965 104.674 51.9426 104.674 51.876C104.674 51.8094 107.212 51.7554 110.345 51.7554C113.477 51.7554 116.016 51.8094 116.016 51.876Z" fill="#E0E0E0"/>
<path d="M116.016 53.6713C116.016 53.7379 113.477 53.7919 110.345 53.7919C107.212 53.7919 104.674 53.7379 104.674 53.6713C104.674 53.6048 107.212 53.5508 110.345 53.5508C113.477 53.5508 116.016 53.6048 116.016 53.6713Z" fill="#E0E0E0"/>
<path d="M133.619 40.9761C133.628 41.0421 131.121 41.4503 128.02 41.8879C124.918 42.3256 122.397 42.6269 122.387 42.561C122.378 42.4952 124.884 42.087 127.986 41.6492C131.087 41.2116 133.609 40.9102 133.619 40.9761Z" fill="#E0E0E0"/>
<path d="M133.844 42.0989C133.853 42.1648 131.347 42.5731 128.246 43.0107C125.143 43.4484 122.622 43.7497 122.613 43.6838C122.604 43.618 125.11 43.2098 128.212 42.772C131.313 42.3344 133.835 42.033 133.844 42.0989Z" fill="#E0E0E0"/>
<path d="M134.05 43.1359C134.059 43.2019 131.552 43.6101 128.451 44.0477C125.349 44.4855 122.828 44.7868 122.819 44.7209C122.809 44.655 125.316 44.2468 128.418 43.8091C131.519 43.3715 134.041 43.0701 134.05 43.1359Z" fill="#E0E0E0"/>
<path d="M133.05 10.3481C133.05 10.4147 130.181 10.4686 126.643 10.4686C123.104 10.4686 120.235 10.4147 120.235 10.3481C120.235 10.2816 123.104 10.2276 126.643 10.2276C130.181 10.2276 133.05 10.2816 133.05 10.3481Z" fill="#E0E0E0"/>
<path d="M133.05 11.4156C133.05 11.4822 130.181 11.5361 126.643 11.5361C123.104 11.5361 120.235 11.4822 120.235 11.4156C120.235 11.3491 123.104 11.2951 126.643 11.2951C130.181 11.2951 133.05 11.3491 133.05 11.4156Z" fill="#E0E0E0"/>
<path d="M133.05 12.4831C133.05 12.5497 130.181 12.6036 126.643 12.6036C123.104 12.6036 120.235 12.5497 120.235 12.4831C120.235 12.4166 123.104 12.3625 126.643 12.3625C130.181 12.3625 133.05 12.4166 133.05 12.4831Z" fill="#E0E0E0"/>
<path d="M133.05 13.5506C133.05 13.6171 130.181 13.6711 126.643 13.6711C123.104 13.6711 120.235 13.6171 120.235 13.5506C120.235 13.4841 123.104 13.4301 126.643 13.4301C130.181 13.4301 133.05 13.4841 133.05 13.5506Z" fill="#E0E0E0"/>
<path d="M133.05 14.6181C133.05 14.6847 130.181 14.7386 126.643 14.7386C123.104 14.7386 120.235 14.6847 120.235 14.6181C120.235 14.5515 123.104 14.4975 126.643 14.4975C130.181 14.4975 133.05 14.5515 133.05 14.6181Z" fill="#E0E0E0"/>
<path d="M133.05 15.6856C133.05 15.7521 130.181 15.8061 126.643 15.8061C123.104 15.8061 120.235 15.7521 120.235 15.6856C120.235 15.619 123.104 15.5651 126.643 15.5651C130.181 15.5651 133.05 15.619 133.05 15.6856Z" fill="#E0E0E0"/>
<path d="M133.05 16.7531C133.05 16.8197 130.181 16.8736 126.643 16.8736C123.104 16.8736 120.235 16.8197 120.235 16.7531C120.235 16.6865 123.104 16.6326 126.643 16.6326C130.181 16.6326 133.05 16.6865 133.05 16.7531Z" fill="#E0E0E0"/>
<path d="M133.05 19.921C133.05 19.9876 130.181 20.0415 126.643 20.0415C123.104 20.0415 120.235 19.9876 120.235 19.921C120.235 19.8545 123.104 19.8006 126.643 19.8006C130.181 19.8006 133.05 19.8545 133.05 19.921Z" fill="#E0E0E0"/>
<path d="M133.14 21.0486C133.14 21.1151 130.271 21.169 126.733 21.169C123.194 21.169 120.325 21.1151 120.325 21.0486C120.325 20.982 123.194 20.928 126.733 20.928C130.271 20.928 133.14 20.982 133.14 21.0486Z" fill="#E0E0E0"/>
<path d="M133.23 22.176C133.23 22.2426 130.361 22.2966 126.823 22.2966C123.284 22.2966 120.416 22.2426 120.416 22.176C120.416 22.1095 123.284 22.0555 126.823 22.0555C130.361 22.0555 133.23 22.1095 133.23 22.176Z" fill="#E0E0E0"/>
<path d="M133.32 23.3035C133.32 23.3701 130.451 23.4241 126.913 23.4241C123.374 23.4241 120.506 23.3701 120.506 23.3035C120.506 23.237 123.374 23.183 126.913 23.183C130.451 23.183 133.32 23.237 133.32 23.3035Z" fill="#E0E0E0"/>
<path d="M133.41 24.431C133.41 24.4975 130.541 24.5515 127.003 24.5515C123.464 24.5515 120.596 24.4975 120.596 24.431C120.596 24.3645 123.464 24.3106 127.003 24.3106C130.541 24.3106 133.41 24.3645 133.41 24.431Z" fill="#E0E0E0"/>
<path d="M133.5 25.5585C133.5 25.6251 130.631 25.679 127.093 25.679C123.554 25.679 120.686 25.6251 120.686 25.5585C120.686 25.492 123.554 25.438 127.093 25.438C130.631 25.438 133.5 25.492 133.5 25.5585Z" fill="#E0E0E0"/>
<path d="M149.782 122.467C149.782 122.513 116.385 122.55 75.198 122.55C33.9966 122.55 0.607178 122.513 0.607178 122.467C0.607178 122.421 33.9966 122.384 75.198 122.384C116.385 122.384 149.782 122.421 149.782 122.467Z" fill="#263238"/>
<path d="M100.501 39.1575L101.161 36.349C100.455 35.0978 100.075 33.642 100.133 32.1009C100.303 27.6687 104.033 24.213 108.465 24.3821C112.897 24.5512 116.353 28.2812 116.183 32.7133C116.014 37.1454 112.284 40.6012 107.852 40.4322C106.002 40.3615 104.323 39.6684 103.005 38.5642L103.008 38.5679L100.501 39.1575Z" fill="white"/>
<path d="M100.501 39.1575C100.501 39.1575 100.552 39.1485 100.658 39.1254C100.77 39.1005 100.929 39.0656 101.134 39.0204C101.567 38.9232 102.197 38.7816 103.015 38.5979C103.031 38.5942 103.042 38.5778 103.038 38.5613C103.037 38.5575 103.035 38.5535 103.033 38.5504L103.031 38.5467L102.985 38.5878C103.779 39.2576 104.973 40.0029 106.568 40.3273C107.361 40.4953 108.246 40.5364 109.171 40.4206C110.095 40.307 111.061 40.024 111.98 39.5317C112.897 39.0416 113.765 38.3433 114.477 37.4567C115.187 36.572 115.744 35.499 116.031 34.3141C116.312 33.1294 116.333 31.8438 116.047 30.5907C115.993 30.273 115.873 29.971 115.778 29.6605C115.736 29.5032 115.656 29.3596 115.595 29.2081C115.527 29.0596 115.47 28.9054 115.393 28.7606C115.227 28.4781 115.091 28.1745 114.89 27.9097L114.607 27.4995L114.285 27.1161C112.581 25.1058 109.95 24.1387 107.574 24.3301C106.382 24.4189 105.251 24.7728 104.274 25.3121C103.295 25.8508 102.469 26.5712 101.832 27.3749C100.551 28.9912 100.046 30.8958 100.08 32.5008C100.103 34.1214 100.605 35.4438 101.133 36.3649L101.13 36.3416C100.923 37.2587 100.764 37.9648 100.655 38.4483C100.604 38.6788 100.565 38.856 100.537 38.9817C100.511 39.1004 100.501 39.1575 100.501 39.1575C100.501 39.1575 100.519 39.0922 100.55 38.9703C100.582 38.8432 100.626 38.6639 100.684 38.4308C100.801 37.9547 100.972 37.2595 101.193 36.3564C101.195 36.3483 101.194 36.3398 101.19 36.333C100.676 35.4133 100.19 34.1009 100.178 32.4997C100.154 30.9133 100.661 29.0388 101.928 27.4514C102.558 26.662 103.373 25.9554 104.337 25.428C105.299 24.8998 106.412 24.5544 107.584 24.4689C109.92 24.285 112.501 25.2364 114.175 27.2109L114.491 27.5874L114.769 27.9902C114.967 28.2502 115.1 28.5485 115.264 28.8258C115.34 28.9679 115.396 29.1195 115.463 29.2653C115.522 29.414 115.601 29.5549 115.643 29.7094C115.736 30.0144 115.855 30.3107 115.908 30.6228C116.189 31.8531 116.17 33.1168 115.896 34.2816C115.615 35.4465 115.071 36.5023 114.374 37.3745C113.676 38.2485 112.824 38.9385 111.922 39.4244C111.019 39.9125 110.069 40.1954 109.158 40.3119C108.246 40.4304 107.371 40.3949 106.587 40.2337C105.009 39.9232 103.82 39.196 103.025 38.5406C103.012 38.5295 102.993 38.5312 102.982 38.5441C102.972 38.5549 102.972 38.5706 102.98 38.5817L102.982 38.5854L103.001 38.5379C102.196 38.7358 101.576 38.8883 101.15 38.9929C100.943 39.0448 100.783 39.0848 100.669 39.1133C100.559 39.1407 100.501 39.1575 100.501 39.1575Z" fill="#263238"/>
<path d="M108.124 40.5667C107.585 40.5667 107.059 40.5129 106.552 40.4055C104.941 40.078 103.752 39.3217 103.017 38.7183L103.005 38.7493L102.962 38.6915L100.675 39.2033C100.566 39.2269 100.515 39.236 100.515 39.236L100.497 39.1606L100.422 39.1433C100.422 39.1433 100.433 39.0853 100.459 38.9646L101.042 36.3671C100.575 35.5408 100.024 34.2099 100 32.5018C99.9612 30.6805 100.606 28.7935 101.769 27.3253C102.438 26.4821 103.29 25.7618 104.235 25.2422C105.253 24.68 106.406 24.337 107.568 24.2503C110.103 24.0466 112.701 25.1242 114.345 27.0644L114.668 27.4481L114.955 27.8642C115.092 28.0445 115.201 28.2459 115.306 28.4406C115.357 28.5346 115.408 28.6285 115.462 28.7202C115.515 28.82 115.558 28.9208 115.6 29.0184C115.622 29.0708 115.644 29.1232 115.668 29.175C115.689 29.2292 115.712 29.2791 115.735 29.329C115.779 29.4278 115.826 29.5299 115.855 29.6397C115.881 29.7234 115.909 29.809 115.938 29.8945C116.011 30.1148 116.086 30.3424 116.126 30.5772C116.405 31.804 116.399 33.104 116.109 34.3325C115.831 35.4761 115.288 36.5735 114.539 37.5067C113.852 38.3634 112.979 39.088 112.017 39.6021C111.135 40.0748 110.181 40.3768 109.181 40.4999C108.824 40.5444 108.472 40.5667 108.124 40.5667ZM103.101 38.4994C103.816 39.0843 104.999 39.8399 106.602 40.1554C107.398 40.319 108.278 40.3456 109.147 40.2326C110.113 40.1091 111.034 39.8135 111.884 39.3543C112.811 38.8549 113.65 38.153 114.311 37.3246C115.032 36.4227 115.553 35.364 115.818 34.2628C116.097 33.0784 116.1 31.8257 115.829 30.6406C115.792 30.4195 115.724 30.2134 115.651 29.9952C115.622 29.908 115.593 29.8207 115.566 29.7326C115.54 29.6358 115.499 29.5462 115.456 29.4514C115.433 29.3996 115.409 29.3477 115.388 29.2949C115.366 29.2456 115.343 29.1921 115.32 29.1385C115.281 29.0466 115.241 28.9515 115.194 28.8634C115.141 28.7738 115.089 28.6789 115.038 28.5836C114.938 28.3987 114.834 28.2076 114.706 28.0385L114.425 27.6327L114.114 27.2621C112.532 25.3964 110.036 24.3568 107.59 24.5483C106.47 24.6301 105.358 24.9585 104.375 25.4981C103.463 25.9971 102.638 26.6898 101.99 27.5011C100.862 28.9152 100.23 30.7367 100.257 32.4984C100.269 34.004 100.704 35.2152 101.118 36.03L101.15 35.8901L101.186 36.1602C101.211 36.2063 101.235 36.2509 101.259 36.2941C101.273 36.3187 101.277 36.3473 101.27 36.3744L101.235 36.5216L101.266 36.7581L101.203 36.6483L100.627 38.9894C100.622 39.0094 100.618 39.0279 100.613 39.0449C100.624 39.0419 100.636 39.039 100.649 39.0359L102.95 38.4681C102.964 38.4601 102.98 38.455 102.996 38.4537C103.001 38.4536 103.005 38.4534 103.009 38.4536L103.016 38.4519L103.045 38.4252L103.057 38.4419L103.129 38.4241L103.101 38.4994Z" fill="#263238"/>
<path d="M104.436 32.6204L105.557 31.3798L107.937 33.2898L111.471 29.2308L112.628 30.3566L107.883 35.576L104.436 32.6204Z" fill="#01676C"/>
<path d="M48.8434 137.054C48.7463 137.054 48.6489 137.051 48.5518 137.046C42.7991 136.725 39.0176 126.994 39.9428 114.892C40.3786 109.197 41.8115 103.893 43.9776 99.956C46.2197 95.8821 49.0201 93.7299 51.8534 93.8836C57.6061 94.2046 61.3876 103.935 60.4624 116.037C60.0266 121.733 58.5938 127.037 56.4276 130.973C54.2626 134.908 51.5796 137.054 48.8434 137.054ZM51.5706 94.8333C49.3201 94.8333 46.935 96.8335 44.9926 100.363C42.8845 104.194 41.4885 109.376 41.0618 114.955C40.2067 126.135 43.6703 135.814 48.6248 136.091C50.9314 136.225 53.4096 134.206 55.4126 130.566C57.5207 126.735 58.9167 121.553 59.3434 115.975C60.1985 104.795 56.7349 95.1157 51.7804 94.8393C51.7107 94.8352 51.6406 94.8333 51.5706 94.8333Z" fill="white"/>
<path d="M51.5705 94.8334C51.5705 94.8334 51.6673 94.8239 51.8546 94.8393C51.9501 94.8492 52.0661 94.8612 52.2032 94.8754C52.3404 94.8968 52.4955 94.9391 52.674 94.9779C53.3747 95.17 54.3229 95.6973 55.1811 96.6441C56.0358 97.5894 56.8337 98.899 57.483 100.497C58.1321 102.096 58.6611 103.977 59.0193 106.083C59.727 110.293 59.81 115.417 58.7725 120.979C58.5118 122.368 58.1701 123.782 57.7313 125.208C57.291 126.632 56.7589 128.071 56.0696 129.487C55.3864 130.903 54.5548 132.309 53.4467 133.588C52.8884 134.222 52.2511 134.823 51.4925 135.313C51.1162 135.56 50.7013 135.771 50.2547 135.926C49.8125 136.089 49.3255 136.175 48.8377 136.174C48.35 136.174 47.8616 136.088 47.4221 135.915C47.1934 135.845 46.9945 135.726 46.7837 135.628C46.5932 135.504 46.3858 135.398 46.214 135.256C45.4921 134.723 44.9213 134.071 44.4423 133.391C43.4929 132.019 42.8691 130.535 42.3792 129.062C41.4225 126.102 41.0287 123.145 40.8914 120.336C40.7604 117.523 40.9219 114.844 41.2553 112.358C41.5907 109.873 42.1051 107.576 42.7608 105.523C44.0546 101.418 45.9144 98.2554 47.8433 96.5161C48.7932 95.6396 49.7635 95.1545 50.4677 94.9769C50.5554 94.9541 50.6382 94.9325 50.7159 94.9123C50.7953 94.9 50.8696 94.8885 50.9386 94.8778C51.0757 94.8541 51.1915 94.8399 51.2863 94.8405C51.4745 94.8329 51.5705 94.8334 51.5705 94.8334C51.5741 94.8531 51.176 94.8171 50.4797 95.0088C49.7864 95.195 48.8335 95.6833 47.8986 96.5603C46.0008 98.2999 44.1666 101.456 42.8937 105.553C42.2484 107.603 41.7432 109.894 41.4157 112.374C41.09 114.854 40.9351 117.526 41.0705 120.33C41.2121 123.13 41.6091 126.076 42.5629 129.018C43.0506 130.481 43.672 131.954 44.6084 133.306C45.0803 133.976 45.6414 134.614 46.3402 135.13C46.5069 135.268 46.7062 135.369 46.8894 135.488C47.0913 135.581 47.282 135.696 47.4993 135.763C47.9174 135.927 48.3783 136.008 48.838 136.008C49.2974 136.009 49.7578 135.928 50.1815 135.772C50.6088 135.624 51.0098 135.421 51.3758 135.18C52.1136 134.704 52.741 134.114 53.2919 133.488C54.386 132.226 55.2133 130.832 55.8934 129.425C57.2524 126.603 58.0598 123.719 58.5955 120.954C59.6397 115.41 59.5713 110.299 58.8831 106.1C58.5346 103.998 58.0168 102.122 57.3802 100.528C56.7434 98.9332 55.9597 97.6274 55.1212 96.6837C54.2789 95.7387 53.3504 95.2101 52.6613 95.0096C52.4858 94.9688 52.333 94.9241 52.1976 94.9003L51.8529 94.8562C51.6673 94.8354 51.5702 94.8391 51.5705 94.8334Z" fill="#263238"/>
<path d="M48.8431 137.054C48.8404 137.034 49.2597 137.067 50.0132 136.901C50.3899 136.819 50.8376 136.663 51.3341 136.428C51.8228 136.181 52.3526 135.848 52.8863 135.412C53.9529 134.538 55.0096 133.262 55.9677 131.668C56.9156 130.067 57.7752 128.151 58.4837 125.975C59.8795 121.622 60.7327 116.226 60.4546 110.255C60.2938 107.277 59.8537 104.138 58.7414 101.032C58.1819 99.4855 57.4376 97.9409 56.3329 96.5632C55.776 95.881 55.1176 95.2436 54.3185 94.7531C53.5156 94.2777 52.5599 93.9507 51.5653 93.9657C50.57 93.9496 49.6148 94.2766 48.7867 94.7195C47.9604 95.1789 47.2532 95.7755 46.6306 96.4165C45.3844 97.7068 44.476 99.1833 43.7086 100.664C42.2024 103.648 41.3195 106.716 40.7346 109.656C39.6116 115.555 39.6835 121.001 40.4662 125.464C40.8611 127.697 41.4626 129.686 42.2132 131.36C42.9592 133.035 43.8854 134.39 44.8825 135.32C45.8674 136.264 46.9272 136.734 47.6741 136.898C48.0468 136.995 48.3452 137.008 48.5418 137.037C48.7407 137.047 48.8431 137.054 48.8431 137.054C48.8431 137.054 48.7407 137.058 48.5405 137.054C48.3426 137.03 48.0414 137.023 47.6638 136.93C46.9075 136.775 45.8285 136.309 44.8267 135.364C43.8123 134.432 42.8709 133.073 42.1118 131.394C41.348 129.715 40.7351 127.721 40.3302 125.482C39.5278 121.007 39.4412 115.549 40.5577 109.631C41.1397 106.681 42.0212 103.602 43.5338 100.599C44.305 99.1086 45.2181 97.6205 46.4814 96.3111C47.1129 95.6607 47.8323 95.0523 48.6814 94.58C49.5321 94.1243 50.5245 93.7833 51.5652 93.7994C52.605 93.784 53.6031 94.1264 54.4307 94.6175C55.255 95.1237 55.926 95.7755 56.4919 96.4688C57.6134 97.8688 58.3612 99.4267 58.9235 100.984C60.0403 104.111 60.4772 107.261 60.6338 110.249C60.9028 116.238 60.0331 121.644 58.6162 126.006C57.8972 128.187 57.0257 130.107 56.0645 131.71C55.0932 133.307 54.0214 134.586 52.9386 135.459C52.3968 135.894 51.8587 136.227 51.3627 136.471C50.8586 136.703 50.4045 136.856 50.0232 136.933C49.6437 137.013 49.3457 137.047 49.1456 137.048C48.9454 137.055 48.8431 137.054 48.8431 137.054Z" fill="#263238"/>
<g opacity="0.3">
<path d="M48.8434 137.054C48.7463 137.054 48.6489 137.051 48.5518 137.046C42.7991 136.725 39.0176 126.994 39.9428 114.892C40.3786 109.197 41.8115 103.893 43.9776 99.956C46.2197 95.8821 49.0201 93.7299 51.8534 93.8836C57.6061 94.2046 61.3876 103.935 60.4624 116.037C60.0266 121.733 58.5938 127.037 56.4276 130.973C54.2626 134.908 51.5796 137.054 48.8434 137.054ZM51.5706 94.8333C49.3201 94.8333 46.935 96.8335 44.9926 100.363C42.8845 104.194 41.4885 109.376 41.0618 114.955C40.2067 126.135 43.6703 135.814 48.6248 136.091C50.9314 136.225 53.4096 134.206 55.4126 130.566C57.5207 126.735 58.9167 121.553 59.3434 115.975C60.1985 104.795 56.7349 95.1157 51.7804 94.8393C51.7107 94.8352 51.6406 94.8333 51.5706 94.8333Z" fill="black"/>
</g>
<path d="M64.4371 98.4318C62.5166 93.2913 59.4687 90.3491 55.854 90.1478C52.251 89.943 48.7695 92.5241 46.0822 97.4078C43.6223 101.879 41.9963 107.883 41.5043 114.317C41.012 120.75 41.7094 126.885 43.4671 131.591C45.3876 136.732 48.4355 139.674 52.0503 139.875C52.1817 139.883 52.3127 139.886 52.4441 139.886C55.916 139.886 59.233 137.321 61.8221 132.615C64.282 128.144 65.908 122.139 66.4 115.706C66.8923 109.273 66.1948 103.138 64.4371 98.4318ZM63.0437 115.519C62.5783 121.602 61.0633 127.24 58.7778 131.393C56.7792 135.026 54.3507 137.127 52.2692 137.009C50.1926 136.893 48.0998 134.541 46.6716 130.718C45.0384 126.346 44.3953 120.588 44.8606 114.504C45.326 108.421 46.841 102.783 49.1264 98.6294C51.0725 95.0929 53.4302 93.0098 55.4704 93.0098C55.5255 93.0098 55.5803 93.011 55.6351 93.0141C57.7117 93.1301 59.8045 95.4815 61.2326 99.3048C62.8659 103.677 63.509 109.435 63.0437 115.519Z" fill="#455A64"/>
<path d="M63.0438 115.519C63.0438 115.519 63.0428 115.432 63.0505 115.264C63.0595 115.091 63.0726 114.842 63.0896 114.517C63.1183 113.861 63.1599 112.893 63.1504 111.645C63.1433 110.398 63.0896 108.872 62.904 107.107C62.8113 106.226 62.6849 105.284 62.5007 104.293C62.3201 103.301 62.0916 102.257 61.7747 101.177C61.4565 100.097 61.0723 98.9749 60.541 97.8485C60.0049 96.7283 59.3521 95.5769 58.3835 94.5696C57.8963 94.0768 57.333 93.5977 56.6248 93.3205C56.2792 93.167 55.8911 93.1011 55.504 93.0829C55.1136 93.0877 54.7232 93.1586 54.3514 93.2857C53.6124 93.5537 52.9583 93.9993 52.375 94.505C51.7913 95.0144 51.2749 95.5932 50.8028 96.2058C48.9262 98.6745 47.6796 101.622 46.7322 104.715C45.8016 107.82 45.2249 111.116 44.958 114.508C44.7057 117.901 44.7752 121.235 45.2248 124.418C45.6923 127.59 46.4815 130.651 47.9641 133.309C48.3381 133.969 48.7666 134.598 49.2649 135.17C49.7609 135.74 50.3488 136.25 51.0415 136.595C51.7289 136.949 52.5646 137.036 53.2999 136.816C54.0445 136.62 54.6759 136.207 55.2338 135.772C56.3473 134.881 57.1691 133.811 57.871 132.76C58.569 131.702 59.1211 130.632 59.601 129.597C60.0797 128.561 60.4654 127.551 60.7954 126.588C61.129 125.625 61.3977 124.706 61.624 123.842C62.0767 122.114 62.3625 120.606 62.5595 119.371C62.7589 118.135 62.8652 117.17 62.9367 116.517C62.9693 116.193 62.9943 115.945 63.0116 115.772C63.0296 115.604 63.0438 115.519 63.0438 115.519C63.0438 115.519 63.0429 115.605 63.0314 115.773C63.0186 115.946 63 116.195 62.9758 116.519C62.9168 117.174 62.8227 118.141 62.6346 119.379C62.449 120.617 62.1737 122.129 61.7302 123.862C61.5086 124.729 61.2442 125.651 60.9143 126.617C60.588 127.584 60.2056 128.598 59.7292 129.64C59.2516 130.68 58.7011 131.756 58.002 132.823C57.2984 133.883 56.475 134.963 55.3437 135.873C54.7756 136.317 54.1317 136.743 53.3504 136.951C52.5808 137.186 51.6727 137.093 50.9571 136.722C50.2326 136.363 49.6309 135.84 49.1247 135.26C48.6163 134.679 48.1818 134.043 47.8029 133.376C46.302 130.694 45.5079 127.622 45.0355 124.437C44.5817 121.243 44.5108 117.9 44.7638 114.497C45.0315 111.096 45.611 107.79 46.5475 104.674C47.5017 101.57 48.7547 98.612 50.6532 96.1214C51.1311 95.5032 51.6545 94.918 52.2496 94.4002C52.8448 93.8863 53.5144 93.4293 54.2867 93.1503C54.6758 93.0179 55.0893 92.9425 55.5063 92.9387C55.9205 92.9577 56.334 93.031 56.6956 93.1918C57.4383 93.4853 58.0119 93.9787 58.5077 94.4817C59.4912 95.5098 60.1439 96.6716 60.6804 97.8008C61.2115 98.936 61.5932 100.064 61.9084 101.149C62.2221 102.234 62.4468 103.282 62.623 104.277C62.803 105.272 62.9246 106.215 63.0124 107.099C63.188 108.868 63.2307 110.397 63.2261 111.645C63.224 112.894 63.1701 113.863 63.1288 114.519C63.1034 114.844 63.0839 115.092 63.0704 115.265C63.0561 115.433 63.0438 115.519 63.0438 115.519Z" fill="#263238"/>
<path d="M64.4372 98.4319C64.4372 98.4319 64.5963 98.8172 64.848 99.5645C65.1011 100.311 65.4245 101.426 65.735 102.88C66.3603 105.782 66.8478 110.07 66.4923 115.349C66.3091 117.985 65.9299 120.869 65.1849 123.912C64.8115 125.433 64.3457 126.993 63.7541 128.57C63.1653 130.148 62.4425 131.742 61.5233 133.307C60.6009 134.865 59.4735 136.409 57.9553 137.719C57.1949 138.368 56.3246 138.95 55.3314 139.366C54.8404 139.583 54.3065 139.727 53.7655 139.844C53.2163 139.931 52.6544 139.987 52.0895 139.958C50.9597 139.901 49.8546 139.557 48.8974 139.024C47.9326 138.493 47.1263 137.769 46.4302 136.984C45.036 135.4 44.112 133.533 43.3757 131.619C41.9557 127.759 41.4292 123.805 41.2862 120.01C41.1644 116.207 41.4597 112.532 42.0832 109.079C42.7058 105.625 43.6579 102.385 44.9672 99.4821C45.6193 98.0308 46.3609 96.6626 47.2253 95.4195C48.0919 94.1813 49.0513 93.0429 50.1899 92.1362C51.3089 91.2208 52.611 90.53 53.981 90.2441C55.3513 89.9497 56.7307 90.1059 57.8687 90.5136C59.0048 90.9413 59.9093 91.5802 60.6241 92.2398C61.34 92.9036 61.8835 93.5882 62.3299 94.2213C63.1978 95.5028 63.6892 96.5772 64.0007 97.3065C64.3046 98.0394 64.4372 98.4319 64.4372 98.4319C64.4372 98.4319 64.3924 98.337 64.3143 98.1494C64.2324 97.9629 64.13 97.6796 63.9639 97.3182C63.6411 96.5937 63.139 95.5253 62.2648 94.2543C61.8155 93.6267 61.2701 92.9488 60.5563 92.2938C59.8436 91.643 58.9455 91.0158 57.8263 90.5991C56.7052 90.2027 55.3529 90.0543 54.0106 90.3468C52.6685 90.631 51.3885 91.3131 50.2846 92.2214C49.1617 93.1206 48.2125 94.2524 47.3547 95.4846C46.4991 96.7216 45.7641 98.0848 45.1178 99.5315C43.8201 102.426 42.8765 105.657 42.2604 109.102C41.6434 112.547 41.3528 116.213 41.4768 120.005C41.6217 123.789 42.1491 127.73 43.5612 131.569C44.2926 133.471 45.2108 135.323 46.5849 136.884C47.2707 137.659 48.0626 138.369 49.0029 138.886C49.9363 139.406 51.0059 139.739 52.1006 139.795C52.6477 139.824 53.1922 139.77 53.725 139.686C54.2503 139.572 54.7694 139.433 55.2488 139.221C56.2182 138.816 57.0739 138.246 57.8241 137.607C59.3225 136.316 60.4445 134.786 61.3632 133.238C62.2792 131.684 63.0017 130.096 63.5912 128.525C64.1835 126.954 64.6511 125.4 65.027 123.884C65.7769 120.85 66.1633 117.973 66.3549 115.342C66.7273 110.073 66.2619 105.792 65.6605 102.891C65.3618 101.438 65.0509 100.322 64.8102 99.5734C64.6991 99.1966 64.5898 98.9152 64.5295 98.7228C64.4653 98.5313 64.4372 98.4319 64.4372 98.4319Z" fill="#263238"/>
<g opacity="0.3">
<path d="M64.4374 98.4319C62.5168 93.2914 59.469 90.3493 55.8542 90.1479C52.2512 89.9431 48.7697 92.5242 46.0824 97.4079C43.6225 101.879 41.9965 107.883 41.5046 114.317C41.0122 120.75 41.7097 126.885 43.4674 131.591C45.3879 136.732 48.4358 139.674 52.0505 139.875C52.1819 139.883 52.3129 139.886 52.4443 139.886C55.9163 139.886 59.2332 137.321 61.8223 132.615C64.2823 128.144 65.9082 122.14 66.4002 115.706C66.8925 109.273 66.1951 103.138 64.4374 98.4319ZM63.0439 115.519C62.5786 121.602 61.0636 127.24 58.778 131.394C56.7795 135.026 54.3509 137.127 52.2695 137.009C50.1928 136.893 48.1 134.541 46.6719 130.718C45.0386 126.346 44.3955 120.588 44.8609 114.504C45.3262 108.421 46.8412 102.783 49.1267 98.6295C51.0727 95.093 53.4304 93.0099 55.4707 93.0099C55.5258 93.0099 55.5805 93.0111 55.6353 93.0143C57.712 93.1302 59.8047 95.4817 61.2329 99.305C62.8662 103.677 63.5092 109.435 63.0439 115.519Z" fill="black"/>
<path d="M52.4443 139.886C52.3129 139.886 52.1819 139.883 52.0505 139.875C48.4358 139.674 45.3879 136.732 43.4674 131.591C41.7097 126.885 41.0122 120.75 41.5046 114.317C41.9965 107.883 43.6225 101.879 46.0824 97.4079C48.7697 92.5242 52.2512 89.9431 55.8542 90.1479C59.469 90.3493 62.5168 93.2914 64.4374 98.4319C66.1951 103.138 66.8925 109.273 66.4002 115.706C65.9082 122.14 64.2823 128.144 61.8223 132.615C59.2332 137.321 55.9163 139.886 52.4443 139.886ZM55.4707 93.0099C53.4304 93.0099 51.0727 95.093 49.1267 98.6295C46.8412 102.783 45.3262 108.421 44.8609 114.504C44.3955 120.588 45.0386 126.346 46.6719 130.718C48.1 134.541 50.1928 136.893 52.2695 137.009C54.3509 137.127 56.7795 135.026 58.778 131.394C61.0636 127.24 62.5786 121.602 63.0439 115.519C63.5092 109.435 62.8662 103.677 61.2329 99.305C59.8047 95.4817 57.712 93.1302 55.6353 93.0143C55.5805 93.0111 55.5258 93.0099 55.4707 93.0099Z" fill="black"/>
</g>
<path d="M57.3305 115.44C57.1045 118.395 55.8199 120.729 54.4615 120.654C53.1031 120.578 52.1851 118.121 52.4112 115.165C52.6372 112.21 53.9218 109.875 55.2802 109.951C56.6387 110.027 57.5566 112.484 57.3305 115.44Z" fill="#263238"/>
<path d="M49.5427 143.23C52.7811 143.23 55.4064 140.795 55.4064 137.79C55.4064 134.786 52.7811 132.351 49.5427 132.351C46.3042 132.351 43.679 134.786 43.679 137.79C43.679 140.795 46.3042 143.23 49.5427 143.23Z" fill="#455A64"/>
<g opacity="0.4">
<path d="M49.5427 143.23C52.7811 143.23 55.4064 140.795 55.4064 137.79C55.4064 134.786 52.7811 132.351 49.5427 132.351C46.3042 132.351 43.679 134.786 43.679 137.79C43.679 140.795 46.3042 143.23 49.5427 143.23Z" fill="black"/>
</g>
<path d="M51.3517 137.79C51.3517 138.717 50.5418 139.469 49.5427 139.469C48.5436 139.469 47.7336 138.717 47.7336 137.79C47.7336 136.864 48.5436 136.112 49.5427 136.112C50.5418 136.112 51.3517 136.864 51.3517 137.79Z" fill="white"/>
<path d="M50.2926 123.922H53.4289V128.125H55.1277C55.1277 128.125 54.7792 134.024 54.0823 135.116C53.6019 135.868 51.6112 137.483 50.4201 138.415C49.9417 138.789 49.2177 138.682 48.8873 138.189C48.6609 137.851 48.6844 137.419 48.9465 137.105C49.551 136.379 50.5983 135.057 50.9024 134.267C51.338 133.135 50.9024 128.488 50.9024 128.488H50.2926V123.922Z" fill="#263238"/>
<g opacity="0.3">
<path d="M50.2926 123.922H53.4289V128.125H55.1277C55.1277 128.125 54.7792 134.024 54.0823 135.116C53.6019 135.868 51.6112 137.483 50.4201 138.415C49.9417 138.789 49.2177 138.682 48.8873 138.189C48.6609 137.851 48.6844 137.419 48.9465 137.105C49.551 136.379 50.5983 135.057 50.9024 134.267C51.338 133.135 50.9024 128.488 50.9024 128.488H50.2926V123.922Z" fill="black"/>
</g>
<path d="M49.6274 100.907C49.7672 101.327 58.2008 109.85 83.6753 105.379L103.328 103.694L103.281 98.2526L50.7452 96.8554L49.6274 100.907Z" fill="#263238"/>
<path d="M50.1038 91.1065V81.5726C50.1038 80.5833 51.004 79.7813 52.1146 79.7813H66.5364C67.647 79.7813 68.5473 80.5833 68.5473 81.5726V91.4481C68.5473 92.4561 67.6141 93.2657 66.483 93.2388L52.0611 92.8971C50.9718 92.8714 50.1038 92.0772 50.1038 91.1065Z" fill="#263238"/>
<path d="M105.072 73.513C105.072 73.513 102.609 63.4563 98.7743 63.7641L96.8613 64.5185L102.691 74.6026L105.072 73.513Z" fill="#455A64"/>
<path d="M100.338 69.3213C102.209 69.4289 104.103 69.5407 105.888 70.1129C107.672 70.6851 109.364 71.7778 110.266 73.4207C111.063 74.8728 111.172 76.5902 111.263 78.2441C111.5 82.5503 111.737 86.8633 111.592 91.1735C111.532 92.9552 111.366 94.8487 110.29 96.2699C108.869 98.1469 106.31 98.6563 103.986 99.0307C103.061 99.1797 102.118 99.329 101.191 99.1942C100.264 99.0595 99.3368 98.5938 98.8758 97.778C98.427 96.9837 98.485 96.012 98.5558 95.1023C99.2277 86.4783 99.8995 77.8542 100.571 69.2301" fill="#455A64"/>
<path d="M103.134 76.3936C103.111 76.3996 103.014 76.1032 102.863 75.6235C102.711 75.1438 102.503 74.4816 102.258 73.7549C102.013 73.0281 101.779 72.3744 101.609 71.9008C101.44 71.4272 101.338 71.1324 101.36 71.1233C101.381 71.1148 101.521 71.3939 101.719 71.858C101.917 72.3219 102.17 72.972 102.416 73.7018C102.661 74.4316 102.853 75.1021 102.976 75.5914C103.099 76.0808 103.156 76.388 103.134 76.3936Z" fill="#263238"/>
<path d="M105.25 74.3519C105.227 74.3579 105.129 74.0615 104.978 73.5818C104.827 73.1021 104.618 72.44 104.373 71.7133C104.128 70.9864 103.894 70.3327 103.725 69.8591C103.555 69.3855 103.453 69.0907 103.475 69.0816C103.496 69.0731 103.636 69.3523 103.834 69.8163C104.032 70.2802 104.285 70.9303 104.531 71.6602C104.776 72.3899 104.968 73.0605 105.091 73.5497C105.214 74.0391 105.271 74.3463 105.25 74.3519Z" fill="#263238"/>
<path d="M107.056 70.4465C107.06 70.4427 107.107 70.4907 107.193 70.5862C107.282 70.6786 107.398 70.8279 107.54 71.0269C107.82 71.4257 108.149 72.0624 108.392 72.9022C108.635 73.7418 108.781 74.7747 108.866 75.9196C108.958 77.0647 109.002 78.327 109.028 79.6504C109.079 82.2989 109.048 84.6968 108.983 86.4314C108.949 87.2986 108.906 87.9999 108.863 88.4836C108.845 88.7256 108.82 88.9128 108.805 89.0397C108.789 89.1665 108.778 89.2328 108.773 89.2323C108.767 89.2317 108.767 89.1644 108.772 89.0368C108.779 88.8914 108.788 88.7068 108.799 88.4793C108.822 87.9952 108.846 87.2943 108.866 86.4278C108.901 84.6948 108.913 82.299 108.862 79.6537C108.836 78.3314 108.796 77.0728 108.714 75.9309C108.636 74.7896 108.504 73.7663 108.278 72.9337C108.053 72.1013 107.747 71.4675 107.486 71.0624C107.227 70.6551 107.04 70.4595 107.056 70.4465Z" fill="#263238"/>
<path d="M108.768 89.4203C108.782 89.4022 108.974 89.5278 109.273 89.7453C109.44 89.8698 109.613 89.9992 109.794 90.1342C109.886 90.2133 110.002 90.2685 110.097 90.4125C110.197 90.5689 110.122 90.7884 109.976 90.8821C109.821 90.9872 109.635 90.9628 109.5 90.8978C109.36 90.8296 109.264 90.7197 109.191 90.6147C109.049 90.4028 108.959 90.1964 108.896 90.0187C108.774 89.662 108.757 89.4292 108.776 89.4254C108.802 89.4192 108.86 89.6421 109.005 89.9754C109.079 90.1404 109.178 90.3356 109.316 90.5253C109.384 90.6174 109.468 90.7035 109.57 90.7504C109.671 90.7982 109.798 90.8047 109.881 90.7457C109.969 90.6838 110.006 90.5714 109.956 90.494C109.907 90.4095 109.79 90.3334 109.699 90.2544C109.526 90.1096 109.36 89.971 109.201 89.8375C108.92 89.5964 108.753 89.4382 108.768 89.4203Z" fill="#263238"/>
<path d="M111.756 85.2434C111.755 85.2894 111.291 85.3158 110.721 85.3025C110.15 85.2893 109.688 85.2413 109.689 85.1954C109.69 85.1495 110.154 85.123 110.725 85.1363C111.295 85.1496 111.757 85.1975 111.756 85.2434Z" fill="#263238"/>
<path d="M101.599 94.9289C101.022 93.4529 101.597 65.954 101.599 64.5279C101.602 62.6388 66.8238 63.3439 66.8238 63.3439L65.7593 94.9289H101.599Z" fill="#263238"/>
<path d="M101.028 66.2814C100.97 65.4004 100.963 64.5171 101.014 63.6355C101.058 62.8717 101.08 62.0261 101.329 61.2949C101.358 61.2085 101.297 61.3577 101.364 61.2233C101.417 61.1434 101.427 61.1253 101.392 61.1689C101.356 61.2113 101.37 61.197 101.436 61.1259C101.341 61.1939 101.472 61.103 101.51 61.0837C101.565 61.0548 101.563 61.0564 101.504 61.0884C101.547 61.0746 101.59 61.0633 101.634 61.0545C101.718 61.0332 101.563 61.0491 101.716 61.0429C101.809 61.039 101.902 61.0361 101.996 61.0375C102.185 61.0402 102.375 61.0547 102.565 61.068C103.408 61.1273 104.23 61.2244 105.056 61.3631C105.529 61.4423 106.012 61.2386 106.149 60.7428C106.266 60.3171 106.004 59.7302 105.528 59.6504C104.489 59.476 103.441 59.3467 102.39 59.2801C101.407 59.2179 100.406 59.3768 99.8529 60.2894C99.6335 60.6514 99.5315 61.0711 99.4678 61.4847C99.3823 62.0387 99.3154 62.5965 99.2706 63.1552C99.1871 64.1957 99.1836 65.2401 99.2523 66.2814C99.284 66.7601 99.6379 67.1695 100.14 67.1695C100.597 67.1695 101.06 66.7625 101.028 66.2814Z" fill="#263238"/>
<path d="M98.9274 63.7572C98.9274 63.7572 97.548 74.4308 102.69 77.5316L101.685 79.7062C101.685 79.7062 97.9973 79.0436 97.1792 75.6303C96.3612 72.2169 96.085 63.541 96.085 63.541C97.0135 63.1028 97.9649 63.2797 98.9274 63.7572Z" fill="#455A64"/>
<path d="M75.1824 56.0947L77.6209 55.6255L84.8886 55.0454C84.8886 55.0454 88.1926 55.6724 88.1158 55.6851C88.0389 55.6977 83.9165 61.2554 78.381 61.0389C72.8455 60.8223 75.1824 56.0947 75.1824 56.0947Z" fill="#FFBF9D"/>
<path d="M43.5713 127.098L43.3323 131.051C43.3323 131.051 33.8163 132.415 33.4292 133.848L50.7127 136.842L51.1475 128.293L43.5713 127.098Z" fill="#263238"/>
<path d="M50.7127 136.842L50.9078 135.603L34.2636 133.196C34.2636 133.196 33.4362 133.357 33.4292 133.848L50.7127 136.842Z" fill="#455A64"/>
<path d="M43.0674 130.925C43.0555 131 43.4711 131.107 43.8392 131.417C44.2164 131.719 44.3671 132.077 44.4506 132.061C44.5311 132.061 44.4928 131.595 44.0395 131.226C43.5903 130.854 43.0625 130.854 43.0674 130.925Z" fill="white"/>
<path d="M41.1248 131.27C41.0914 131.338 41.432 131.528 41.6568 131.891C41.8934 132.249 41.8989 132.601 41.9837 132.612C42.0606 132.637 42.2047 132.213 41.9156 131.766C41.631 131.317 41.1406 131.2 41.1248 131.27Z" fill="white"/>
<path d="M39.7193 132.998C39.7929 133.027 39.9833 132.677 39.8467 132.233C39.7137 131.789 39.3474 131.56 39.2994 131.615C39.2397 131.668 39.4529 131.93 39.5588 132.296C39.6745 132.659 39.6368 132.976 39.7193 132.998Z" fill="white"/>
<path d="M43.573 129.162C43.595 129.235 44.0024 129.2 44.4738 129.311C44.9476 129.414 45.291 129.619 45.3476 129.563C45.407 129.518 45.0987 129.181 44.5415 129.057C43.9856 128.929 43.543 129.096 43.573 129.162Z" fill="white"/>
<path d="M89.9961 80.9524L91.789 56.5512L87.244 55.1297C87.244 55.1297 82.9695 60.5167 78.0509 60.3996C73.1323 60.2825 75.4871 56.0529 75.4871 56.0529L70.4576 56.7554C69.3294 56.913 68.3244 57.5505 67.701 58.5039L62.7095 66.138L67.9794 69.2414L68.5671 69.059C68.8452 72.3116 70.0155 78.5183 70.4506 80.7614C70.5546 81.2976 70.4383 81.8523 70.1286 82.3022L67.6665 85.8789C67.6665 85.8789 89.744 91.7486 91.6177 88.7505C93.4915 85.7524 89.9961 80.9524 89.9961 80.9524Z" fill="#01676C"/>
<path d="M50.9548 102.659V127.399C50.9548 128.455 52.5954 128.456 52.5954 127.399V102.659C52.5954 101.603 50.9548 101.601 50.9548 102.659Z" fill="#455A64"/>
<path d="M82.0288 102.724V129.508C82.0288 130.651 83.8049 130.653 83.8049 129.508V102.724C83.8049 101.581 82.0288 101.579 82.0288 102.724Z" fill="#455A64"/>
<path d="M66.8701 139.98C67.849 135.796 69.0347 131.648 70.1488 127.494C71.3002 123.2 72.51 118.913 73.5467 114.594C73.7307 113.827 73.8807 113.036 74.2081 112.308C74.3667 111.955 74.5859 111.64 74.8182 111.326C74.9437 111.157 74.72 111.416 74.9 111.229C74.9716 111.155 75.0412 111.08 75.1178 111.01C75.165 110.967 75.462 110.75 75.2712 110.876C75.3734 110.808 75.4776 110.745 75.5874 110.689C75.6405 110.662 75.6946 110.637 75.7491 110.612C75.9662 110.513 75.5828 110.662 75.8226 110.584C75.9856 110.532 76.1497 110.486 76.3184 110.451C77.0882 110.292 81.1489 110.364 82.0291 110.495C82.502 110.565 82.9847 110.381 83.1215 109.919C83.2378 109.527 82.9775 108.977 82.5012 108.906C80.9069 108.668 76.0526 108.509 74.5992 109.315C73.459 109.947 72.7463 111.126 72.3431 112.261C71.9979 113.234 71.8134 114.26 71.5613 115.257C71.3247 116.192 71.0807 117.126 70.8353 118.06C69.4833 123.204 68.0841 128.337 66.7196 133.478C66.1842 135.495 65.6325 137.512 65.1574 139.542C64.9155 140.576 66.6274 141.018 66.8701 139.98Z" fill="#455A64"/>
<path d="M80.3153 144.891C83.5063 144.891 86.0931 142.255 86.0931 139.002C86.0931 135.75 83.5063 133.113 80.3153 133.113C77.1244 133.113 74.5376 135.75 74.5376 139.002C74.5376 142.255 77.1244 144.891 80.3153 144.891Z" fill="#455A64"/>
<path d="M82.3747 139.002C82.3747 140.006 81.4979 140.819 80.4163 140.819C79.3347 140.819 78.4578 140.006 78.4578 139.002C78.4578 137.999 79.3346 137.185 80.4163 137.185C81.4979 137.185 82.3747 137.999 82.3747 139.002Z" fill="white"/>
<path d="M81.2284 123.988H84.6237V128.538H86.4629C86.4629 128.538 86.0856 134.925 85.3311 136.106C84.8111 136.92 82.6559 138.67 81.3664 139.678C80.8485 140.083 80.0646 139.967 79.707 139.434C79.4619 139.068 79.4873 138.601 79.7711 138.26C80.4255 137.474 81.5593 136.043 81.8886 135.188C82.3601 133.963 81.8886 128.932 81.8886 128.932H81.2284V123.988Z" fill="#263238"/>
<path d="M82.6612 64.4256C82.6864 64.8161 84.0011 80.8792 82.2062 81.8695C80.4113 82.8598 71.9538 81.3431 71.3518 80.887C70.7497 80.431 69.3323 64.9107 69.9512 64.1061C70.5702 63.3014 82.615 63.7085 82.6612 64.4256Z" fill="#455A64"/>
<path d="M70.3779 64.3883C70.3779 64.3883 81.1902 64.8059 81.4044 65.1158C81.6187 65.4257 81.9286 80.4798 82.2385 80.4798C82.5485 80.4798 82.9116 79.9592 82.9116 79.9592C82.9116 79.9592 82.5675 64.9612 82.4157 64.5845C82.2638 64.2078 72.8132 63.4585 70.3779 64.3883Z" fill="white"/>
<path d="M74.0701 64.1094H74.9706L75.0493 63.2778H74.0208L74.0701 64.1094Z" fill="#FFBF9D"/>
<path d="M76.4096 64.4412H77.0501L77.106 63.2778H76.3745L76.4096 64.4412Z" fill="#263238"/>
<path d="M94.8837 67.6446C94.8837 67.6446 96.5547 78.2589 94.5053 80.4839C92.4558 82.709 92.3973 82.2406 89.938 81.8307C87.4787 81.4208 74.1282 76.5022 74.1867 76.6193C74.2453 76.7364 75.8848 72.5205 75.8848 72.5205L88.884 74.3613L88.5912 68.7144L94.8837 67.6446Z" fill="#FFBF9D"/>
<path d="M63.0028 66.3106C62.7155 66.6034 56.3271 75.6579 56.3271 77.2512C56.3271 78.8444 57.3811 79.7813 57.3811 79.7813H74.9181L75.1818 75.741L63.5294 74.3613L67.583 69.0079L63.0028 66.3106Z" fill="#FFBF9D"/>
<path d="M75.9812 72.5341C75.9812 72.5341 72.1752 69.9699 71.5085 69.9053C70.8418 69.8408 68.175 69.5397 68.175 69.5397C68.175 69.5397 67.0136 70.0129 66.7555 70.5936C66.4974 71.1742 66.7555 71.5829 66.7555 71.5829C66.7555 71.5829 66.1748 72.0875 66.3039 72.5341C66.4329 72.9808 66.6695 73.0668 66.6695 73.0668C66.6695 73.0668 65.9869 73.755 66.2852 74.1207C66.5835 74.4863 67.4652 74.6153 67.4652 74.6153C67.4652 74.6153 67.1857 75.11 67.6158 75.3465C68.0459 75.5831 69.9297 76.3358 71.0955 76.4649C72.2612 76.5939 74.9006 76.6193 74.9006 76.6193C74.9006 76.6193 75.8097 72.7128 75.8472 72.6166" fill="#FFBF9D"/>
<path d="M84.0148 79.7813C84.0127 80.0234 84.6007 80.8805 82.9663 81.2197C82.9663 81.2197 82.9972 82.5471 81.3011 82.2997C79.605 82.0523 74.9181 79.7813 74.9181 79.7813C74.9181 79.7813 74.7984 75.7823 75.1818 75.741C75.5652 75.6997 83.7373 76.594 83.7681 76.7481C83.7989 76.9023 84.1161 79.6469 84.1161 79.6469" fill="#FFBF9D"/>
<path d="M60.1281 74.4332C60.1148 74.3939 60.8636 74.154 61.8242 74.148C62.785 74.1361 63.538 74.362 63.5255 74.4016C63.5152 74.451 62.763 74.3022 61.8257 74.3142C60.8888 74.3197 60.1392 74.4824 60.1281 74.4332Z" fill="#FF9A6C"/>
<path d="M91.6182 76.1607C91.5772 76.1935 91.1468 75.5614 90.3597 75.0924C89.5791 74.6123 88.8196 74.5241 88.8297 74.4725C88.823 74.4323 89.6263 74.4481 90.4459 74.9502C91.2704 75.4434 91.657 76.1479 91.6182 76.1607Z" fill="#FF9A6C"/>
<path d="M88.5172 81.474C88.5152 81.4794 88.4406 81.4587 88.3003 81.4142C88.1447 81.3628 87.9417 81.2957 87.6891 81.2121C87.1425 81.0235 86.3828 80.7612 85.4517 80.4399C83.552 79.767 80.9577 78.848 78.0915 77.8328C77.0586 77.4621 76.0613 77.1041 75.1389 76.7729L75.1674 76.7776C72.862 76.8252 70.8926 76.4188 69.5511 76.0059C68.8776 75.8011 68.3535 75.6025 67.9984 75.4571C67.8203 75.3854 67.6859 75.3232 67.5946 75.2826C67.5036 75.2411 67.4572 75.2174 67.459 75.213C67.4608 75.2087 67.5108 75.2239 67.605 75.257C67.713 75.2962 67.8493 75.3457 68.0177 75.4069C68.378 75.5361 68.9054 75.7193 69.5792 75.9097C70.922 76.2938 72.8784 76.6755 75.1639 76.6182L75.1785 76.6178L75.1926 76.6229C76.1157 76.952 77.1139 77.3078 78.1475 77.6762C81.0073 78.7093 83.5958 79.6444 85.4913 80.3292C86.415 80.6713 87.1687 80.9504 87.7109 81.1512C87.9592 81.2469 88.1587 81.3237 88.3115 81.3826C88.4482 81.4373 88.5191 81.4686 88.5172 81.474Z" fill="#FF9A6C"/>
<path d="M68.4986 61.4727C68.5224 61.4743 68.5098 61.9268 68.4856 62.6572C68.4621 63.3875 68.4294 64.396 68.4341 65.5094C68.4391 66.6232 68.4881 67.6301 68.5408 68.3582C68.5925 69.0863 68.6373 69.5364 68.6122 69.5397C68.6009 69.5413 68.5761 69.4305 68.5412 69.2285C68.5053 69.0267 68.4646 68.7329 68.4236 68.3688C68.3407 67.6407 68.2728 66.6288 68.2679 65.5102C68.2631 64.392 68.3145 63.3809 68.3681 62.6509C68.3952 62.2859 68.4219 61.9909 68.4456 61.7875C68.4689 61.584 68.4871 61.4719 68.4986 61.4727Z" fill="#263238"/>
<path d="M91.7892 56.5512C91.7892 56.5512 94.0304 57.0029 94.6943 59.714C95.5193 63.0831 96.73 68.1289 96.73 68.1289L87.98 69.2014L87.2441 64.7932L91.7892 56.5512Z" fill="#01676C"/>
<path d="M96.0853 68.2079C96.0859 68.2136 96.0349 68.2247 95.9371 68.2407C95.8199 68.2577 95.6787 68.2781 95.5088 68.3026C95.1095 68.3524 94.5765 68.4188 93.9301 68.4994C92.5962 68.6583 90.7524 68.8664 88.7149 69.0861C88.4663 69.1127 88.2206 69.1391 87.9891 69.1639L87.905 69.1729L87.8978 69.0888C87.7373 67.2141 87.6026 65.5463 87.5134 64.3467C87.4735 63.7667 87.4407 63.2901 87.4161 62.9311C87.3967 62.5981 87.3911 62.4148 87.4019 62.4138C87.4126 62.4129 87.4387 62.5944 87.4769 62.9258C87.5144 63.2837 87.5643 63.7588 87.6249 64.337C87.7435 65.5341 87.898 67.2002 88.0626 69.0745L87.9714 68.9994C88.2028 68.9743 88.4485 68.9477 88.6971 68.9208C90.7346 68.7011 92.5804 68.5115 93.9175 68.3825C94.5663 68.3234 95.1012 68.2747 95.5018 68.2383C95.673 68.226 95.8154 68.2159 95.9335 68.2074C96.0324 68.2022 96.0846 68.2022 96.0853 68.2079Z" fill="#263238"/>
<path d="M78.5725 88.3018C77.3423 87.9744 72.3901 87.0386 68.1517 86.0054C68.1517 86.0054 67.0766 86.8606 66.3322 86.9364C57.2262 87.8645 46.0061 91.2959 43.6387 94.4232C41.4444 97.3218 42.8247 128.556 42.8247 128.556L51.25 129.573C51.25 129.573 54.6449 103.23 54.9703 102.811C55.3185 102.364 82.0482 101.281 81.0666 97.6664C80.3303 94.955 81.6971 99.0319 80.8604 96.1622C80.0237 93.2925 78.5725 88.3018 78.5725 88.3018Z" fill="#455A64"/>
<g opacity="0.2">
<path d="M57.7435 102.514C57.7435 102.514 52.0368 97.1378 58.0588 93.0987C64.0809 89.0595 70.8373 88.5454 70.8373 88.5454L68.8015 87.4165C68.8015 87.4165 75.2629 88.2686 74.9595 88.4805C74.6561 88.6923 63.1159 102.062 62.7589 102.058C62.402 102.055 57.7435 102.514 57.7435 102.514Z" fill="black"/>
</g>
<path d="M91.1761 87.4969C90.2767 84.7244 83.2632 87.6975 83.2632 87.6975C79.4641 88.0694 61.5072 88.778 59.3253 94.9289C58.6708 96.7742 59.7443 98.9511 60.9149 100.606C62.0544 102.216 63.9393 103.129 65.9083 103.004L68.8013 102.82L87.98 100.124C88.1867 100.085 93.4494 94.5045 91.1761 87.4969Z" fill="#455A64"/>
<path d="M91.1761 87.4969C91.1761 87.4969 91.1965 87.5486 91.2294 87.6522C91.2632 87.7613 91.3106 87.9145 91.3724 88.1139C91.4759 88.5257 91.6386 89.1372 91.7171 89.9495C91.8051 90.759 91.8118 91.7677 91.6359 92.9225C91.4539 94.0745 91.0804 95.3701 90.4315 96.7034C90.1096 97.3707 89.7184 98.0458 89.2545 98.7131C89.0221 99.0466 88.7708 99.3776 88.4934 99.699C88.3465 99.8607 88.2264 100.014 88.0259 100.169C87.7863 100.226 87.5908 100.237 87.368 100.274C85.6327 100.52 83.7705 100.785 81.7996 101.065C77.8562 101.622 73.4782 102.241 68.8127 102.901L68.8096 102.901L68.8064 102.902C68.153 102.943 67.4936 102.985 66.8287 103.028C66.1685 103.066 65.4875 103.144 64.802 103.049C63.4393 102.872 62.1293 102.177 61.2073 101.108C60.9283 100.789 60.6934 100.441 60.4691 100.092C60.2458 99.7414 60.034 99.3842 59.8477 99.0148C59.4752 98.2779 59.1826 97.4957 59.0804 96.6793C58.9715 95.8665 59.117 95.017 59.5144 94.3113C59.9016 93.5978 60.4816 93.0283 61.097 92.5511C61.7164 92.073 62.3857 91.6795 63.0725 91.3534C63.7544 91.0146 64.4561 90.7449 65.1519 90.4941C66.55 90.0088 67.9443 89.6492 69.3025 89.354C74.7495 88.2049 79.5792 87.9525 83.2582 87.6472L83.2435 87.651C84.5076 87.1415 85.6756 86.7854 86.7132 86.5552C87.7498 86.3274 88.6635 86.2355 89.3992 86.3145C89.7658 86.3546 90.0875 86.4345 90.3436 86.5573C90.5966 86.6843 90.7879 86.835 90.9069 86.9867C91.0257 87.1369 91.0957 87.2669 91.1261 87.3593C91.1616 87.45 91.1761 87.4969 91.1761 87.4969C91.1761 87.4969 91.1526 87.4529 91.1132 87.3649C91.0789 87.2751 91.0055 87.1491 90.8856 87.0047C90.7655 86.8588 90.5757 86.7153 90.3262 86.5947C90.0735 86.4784 89.7561 86.4039 89.3937 86.3685C88.6664 86.2988 87.7601 86.3977 86.7303 86.632C85.7004 86.8684 84.5362 87.2313 83.2829 87.744L83.2752 87.7471L83.2681 87.7478C79.5861 88.073 74.7643 88.3419 69.3341 89.4992C67.9807 89.7962 66.5924 90.1569 65.2037 90.6414C64.5129 90.8915 63.8165 91.1603 63.1423 91.4964C62.4627 91.82 61.803 92.2094 61.1962 92.6788C60.5929 93.1472 60.0295 93.7032 59.6581 94.3897C59.2768 95.0708 59.1401 95.8713 59.2443 96.6594C59.3432 97.4484 59.6287 98.2146 59.9957 98.9397C60.1792 99.3032 60.3882 99.6557 60.6089 100.002C60.8315 100.349 61.0635 100.691 61.3328 100.999C62.2285 102.037 63.5005 102.712 64.8237 102.885C65.485 102.977 66.1509 102.902 66.8183 102.864C67.4832 102.822 68.1426 102.78 68.7961 102.739L68.79 102.739C73.4557 102.087 77.8338 101.475 81.7775 100.924C83.7489 100.65 85.6117 100.391 87.3475 100.149L87.6714 100.104L87.8322 100.082L87.9124 100.071L87.9523 100.065L87.9623 100.064C87.9667 100.073 87.9667 100.041 87.9746 100.084C87.9663 100.039 87.9731 100.07 87.9716 100.059L87.9731 100.057C88.111 99.9458 88.2683 99.7708 88.4019 99.6194C88.6768 99.3033 88.9274 98.9759 89.1591 98.6463C89.622 97.9863 90.0135 97.3177 90.3362 96.6569C90.9869 95.3362 91.3652 94.0523 91.554 92.9095C91.7367 91.7638 91.7387 90.7614 91.66 89.9551C91.5909 89.146 91.4379 88.5347 91.3439 88.1215C91.2883 87.9207 91.2456 87.7665 91.2151 87.6566C91.1869 87.5517 91.1761 87.4969 91.1761 87.4969Z" fill="#263238"/>
<path d="M51.7485 97.3075C51.7646 97.2939 52.014 97.5545 52.3794 98.0081C52.7449 98.4613 53.2203 99.1126 53.687 99.8698C54.1529 100.628 54.5202 101.346 54.7601 101.876C55.0005 102.407 55.1207 102.747 55.1013 102.755C55.0785 102.765 54.9204 102.442 54.6544 101.928C54.3886 101.413 54.0079 100.709 53.5454 99.957C53.0822 99.2053 52.6257 98.5485 52.2858 98.0794C51.9463 97.61 51.7294 97.3233 51.7485 97.3075Z" fill="#263238"/>
<path d="M94.1374 38.05C93.2936 37.9277 92.4497 37.8054 91.6058 37.6831C92.4749 37.6375 93.3656 37.3893 94.0094 36.8038C94.6532 36.2183 94.9892 35.2476 94.664 34.4404C94.3862 33.7508 93.6893 33.2998 92.966 33.1275C92.0123 32.9001 90.9649 33.1012 90.163 33.6655C89.3613 34.2299 88.8186 35.148 88.7107 36.1225L90.0711 39.6441C90.0286 40.097 90.3138 40.5745 90.749 40.7065C91.1843 40.8386 91.7141 40.5643 91.8151 40.1208C91.884 39.8187 91.7146 39.4967 91.4582 39.3363C92.3543 39.5161 93.3096 39.3994 94.132 38.9991C94.4374 38.8504 94.7635 38.4879 94.5518 38.2222C94.4561 38.1023 94.2893 38.072 94.1374 38.05Z" fill="#263238"/>
<path d="M90.6135 39.0469C90.6135 39.0469 92.2626 46.3868 92.7805 49.5682C93.2984 52.7497 93.0214 54.3275 90.1997 54.3275C87.378 54.3275 77.1517 55.4631 74.9426 53.7857C72.7335 52.1082 73.2035 38.7082 73.2035 38.7082L90.6135 39.0469Z" fill="#263238"/>
<path d="M77.7721 45.5002C77.8738 43.4285 76.5413 41.6796 74.7961 41.594C73.0508 41.5083 71.5535 43.1184 71.4519 45.1901C71.3502 47.2619 72.6827 49.0108 74.4279 49.0964C76.1732 49.182 77.6705 47.572 77.7721 45.5002Z" fill="#455A64"/>
<path d="M89.4887 36.7104C87.7229 34.2261 85.229 32.6957 82.1919 32.439C80.4785 32.2942 79.7444 32.6025 78.4865 32.852C77.2285 33.1014 76.0689 33.6885 75.261 34.6845C74.3014 35.8674 73.4717 37.2087 73.2036 38.7082C72.9284 40.2485 72.9439 41.7749 73.154 43.046C73.4091 44.5897 74.2943 46.9833 75.1252 48.3092L77.7364 48.8076C79.9188 49.0307 82.1318 49.2529 84.2968 48.8986C86.4618 48.5442 88.6102 47.5381 89.8784 45.7479C91.6401 43.2608 91.2546 39.1946 89.4887 36.7104Z" fill="#263238"/>
<path d="M85.9659 36.4452L80.828 33.9878L79.4376 34.0545C76.333 33.8548 73.9599 37.1327 73.769 39.6453C73.5569 42.4367 73.4079 45.853 73.7119 47.9417C74.3234 52.1416 77.8328 52.726 77.8328 52.726C77.8328 52.726 77.6108 56.1282 77.4899 57.5164L84.7756 56.4077L87.2656 37.9575C87.2907 37.1925 86.726 36.5355 85.9659 36.4452Z" fill="#FFBF9D"/>
<path d="M79.9871 47.3943C79.9732 47.1742 79.865 46.973 79.7193 46.83C79.4279 46.544 78.9777 46.4876 78.6311 46.6936C78.2846 46.8995 78.0631 47.3552 78.096 47.7949C78.2644 48.0629 78.537 48.2546 78.8499 48.3033C78.8986 48.3108 78.9476 48.3159 78.997 48.318C79.236 48.3281 79.4842 48.2638 79.6784 48.1003C79.8725 47.9368 80.0043 47.6659 79.9871 47.3943Z" fill="#FF9A6C"/>
<path d="M75.4793 43.0688C75.4656 43.3526 75.6947 43.5982 75.9906 43.6179C76.2861 43.6376 76.5373 43.4242 76.551 43.1405C76.5648 42.8567 76.3357 42.6108 76.0404 42.5911C75.7442 42.5713 75.493 42.7851 75.4793 43.0688Z" fill="#263238"/>
<path d="M74.6203 41.1057C74.6861 41.1767 75.0971 40.8807 75.6757 40.8896C76.2536 40.8903 76.6742 41.1934 76.7379 41.1233C76.7692 41.0924 76.7028 40.9651 76.5198 40.828C76.3396 40.6917 76.0309 40.5574 75.6705 40.5541C75.3102 40.5515 75.0054 40.6803 74.8294 40.8137C74.6499 40.9478 74.5879 41.0739 74.6203 41.1057Z" fill="#263238"/>
<path d="M78.0175 45.8768C78.0206 45.844 77.6619 45.7773 77.0802 45.6951C76.9327 45.6779 76.7933 45.6468 76.7696 45.5457C76.7362 45.4385 76.8001 45.2801 76.8739 45.1092C77.0175 44.7535 77.1676 44.3808 77.3253 43.99C77.9524 42.3966 78.4088 41.0855 78.3444 41.0609C78.2799 41.0361 77.7192 42.3078 77.0919 43.9012C76.9409 44.2943 76.7963 44.6688 76.6589 45.0272C76.6007 45.1944 76.5022 45.3835 76.5747 45.6059C76.6131 45.7169 76.7205 45.7983 76.8148 45.8251C76.9092 45.8552 76.9921 45.8579 77.0652 45.8633C77.6512 45.9023 78.0149 45.9096 78.0175 45.8768Z" fill="#263238"/>
<path d="M77.8263 52.721C77.8263 52.721 80.6437 52.9392 83.459 51.2962C83.459 51.2962 81.9552 54.1853 77.7651 53.7388L77.8263 52.721Z" fill="#FF9A6C"/>
<path d="M79.7143 46.2989C79.6204 46.2923 79.6111 46.9201 79.0678 47.3588C78.5257 47.799 77.8573 47.7199 77.8512 47.8075C77.842 47.8468 77.9987 47.9314 78.281 47.9428C78.558 47.9558 78.9639 47.872 79.2962 47.6037C79.6277 47.3347 79.7733 46.9718 79.798 46.7145C79.8253 46.4523 79.7574 46.2958 79.7143 46.2989Z" fill="#263238"/>
<path d="M74.9537 39.1008C75.049 39.2433 75.4932 39.1545 76.0102 39.2043C76.5286 39.2374 76.9542 39.3958 77.0696 39.2701C77.121 39.2086 77.0662 39.0703 76.8887 38.9258C76.7138 38.7821 76.41 38.6472 76.054 38.6185C75.6982 38.5904 75.3779 38.6751 75.1839 38.7894C74.9868 38.9038 74.9123 39.0317 74.9537 39.1008Z" fill="#263238"/>
<path d="M81.6614 43.2896C81.657 43.5737 81.4131 43.8042 81.1163 43.8052C80.8202 43.8062 80.583 43.5774 80.5872 43.2933C80.5915 43.0092 80.8357 42.7784 81.1317 42.7774C81.4284 42.7763 81.6656 43.0056 81.6614 43.2896Z" fill="#263238"/>
<path d="M82.4348 41.4121C82.3647 41.4787 81.9731 41.1573 81.3952 41.1296C80.8185 41.0938 80.3794 41.3697 80.3204 41.2957C80.2911 41.2628 80.3654 41.1399 80.5566 41.0147C80.7451 40.8901 81.0618 40.7756 81.4215 40.7951C81.7813 40.8153 82.0774 40.9631 82.2446 41.1073C82.4153 41.2527 82.4692 41.3823 82.4348 41.4121Z" fill="#263238"/>
<path d="M82.2132 39.5421C82.0928 39.6675 81.6538 39.509 81.1182 39.4754C80.5837 39.4253 80.1239 39.5137 80.0264 39.3712C79.9838 39.3023 80.062 39.1745 80.2666 39.0602C80.4683 38.9463 80.8002 38.8616 81.168 38.8901C81.5358 38.9192 81.849 39.054 82.0285 39.1979C82.2112 39.3422 82.2665 39.4805 82.2132 39.5421Z" fill="#263238"/>
<path d="M86.0719 44.9263C86.0767 44.6142 86.4469 43.8829 86.7559 43.8387C87.5807 43.7211 89.0636 43.8063 89.0504 45.8971C89.0322 48.755 85.8911 48.2569 85.8865 48.1749C85.883 48.1108 86.0554 46.004 86.0719 44.9263Z" fill="#FFBF9D"/>
<path d="M86.9575 47.0264C86.9701 47.0173 87.0071 47.0615 87.0909 47.1006C87.1728 47.1386 87.3138 47.1656 87.4632 47.1106C87.7658 47.0017 88.023 46.524 88.0401 46.009C88.0491 45.7488 87.9963 45.5009 87.9054 45.2951C87.8193 45.0855 87.6851 44.9386 87.5332 44.9107C87.3822 44.8747 87.2741 44.965 87.2385 45.0451C87.1996 45.1249 87.2175 45.1821 87.2024 45.1868C87.1943 45.194 87.1412 45.1386 87.165 45.0208C87.1772 44.964 87.2111 44.8968 87.2787 44.8422C87.3476 44.787 87.4485 44.7592 87.5545 44.7713C87.7749 44.7881 87.9719 44.992 88.0718 45.2178C88.1836 45.4446 88.2493 45.7234 88.2392 46.0154C88.2173 46.5913 87.9191 47.1282 87.5051 47.2451C87.3039 47.2962 87.1364 47.2345 87.0503 47.1665C86.9622 47.0955 86.9476 47.0314 86.9575 47.0264Z" fill="#FF9A6C"/>
<path d="M86.8716 43.8548L86.0975 44.5558C83.1777 41.3548 77.5829 33.4567 77.8933 33.9258C77.8933 33.9258 80.0922 33.1911 82.3873 33.7443C84.6825 34.2973 89.0077 35.7585 88.7543 38.4925C88.5009 41.2264 86.8716 43.8548 86.8716 43.8548Z" fill="#263238"/>
<path d="M88.5008 41.1865C90.2616 41.5437 91.3452 43.5278 90.9211 45.618C90.497 47.7082 88.7258 49.1131 86.9649 48.7558C85.2041 48.3985 84.1205 46.4144 84.5446 44.3242C84.9687 42.234 86.7399 40.8292 88.5008 41.1865Z" fill="#455A64"/>
<path d="M88.3275 42.0413C88.3253 42.0625 88.0842 41.9949 87.6545 42.0483C87.2307 42.0968 86.6124 42.3395 86.1001 42.9199C85.5872 43.4858 85.213 44.4003 85.2859 45.4147C85.3246 45.9181 85.4844 46.4417 85.7982 46.891C86.1085 47.339 86.5912 47.6932 87.1564 47.8112C87.7229 47.923 88.3058 47.7852 88.7663 47.4934C89.2306 47.202 89.5818 46.7819 89.8138 46.3334C90.2763 45.4275 90.2881 44.4394 90.0363 43.7184C89.7906 42.9843 89.3158 42.5198 88.9444 42.31C88.5696 42.0934 88.3212 42.0617 88.3275 42.0413C88.3275 42.0413 88.5798 42.0484 88.9764 42.2537C89.3686 42.452 89.8777 42.9217 90.1474 43.6798C90.4231 44.4249 90.4261 45.4519 89.95 46.4034C89.711 46.8747 89.3451 47.3197 88.8529 47.6315C88.3653 47.9436 87.736 48.0958 87.1233 47.9741C86.5117 47.8473 85.9919 47.4617 85.6647 46.9843C85.3331 46.5054 85.1695 45.9532 85.1331 45.4261C85.0656 44.3644 85.4685 43.4198 86.0128 42.8411C86.5566 42.2479 87.2085 42.0138 87.6471 41.984C88.0923 41.9495 88.3275 42.0413 88.3275 42.0413Z" fill="#263238"/>
<path d="M86.7751 41.5907C86.7751 41.5907 86.9295 33.708 80.4028 32.4019C80.4028 32.4019 82.3119 31.6597 84.7696 33.0062C87.2272 34.3528 88.1001 38.0416 88.4584 41.3943L86.7751 41.5907Z" fill="#455A64"/>
<path d="M70.47 141.762L35.4841 135.954L35.8661 133.996L70.852 139.803L70.47 141.762Z" fill="#263238"/>
<g opacity="0.3">
<path d="M70.47 141.762L35.4841 135.954L35.8661 133.996L70.852 139.803L70.47 141.762Z" fill="black"/>
</g>
<g opacity="0.3">
<path d="M62.6521 140.464L62.9822 138.497L70.8519 139.803L70.4699 141.762L62.6521 140.464Z" fill="black"/>
</g>
<path d="M85.353 100.888C85.353 100.888 85.353 84.9983 86.6111 81.9244C87.8691 78.8505 102.756 78.1519 103.385 81.086C104.014 84.0203 103.385 99.326 103.385 99.326L85.353 100.888Z" fill="#263238"/>
<path d="M85.3676 100.491C85.369 100.49 85.3845 100.883 85.4412 100.876C85.5042 100.87 85.5866 100.861 85.6925 100.85C85.92 100.829 86.2445 100.797 86.664 100.757C87.5183 100.678 88.7581 100.564 90.3328 100.419C93.4876 100.135 97.9828 99.7315 103.378 99.2469L103.305 99.3229C103.405 96.6268 103.496 93.6807 103.544 90.5559C103.568 88.9936 103.583 87.3863 103.564 85.7441C103.562 85.3334 103.554 84.9208 103.542 84.5062C103.535 84.0914 103.521 83.675 103.498 83.2573C103.485 82.8385 103.451 82.4205 103.414 82.001C103.403 81.7896 103.365 81.5845 103.335 81.377C103.317 81.2754 103.309 81.1649 103.284 81.0703C103.259 80.9782 103.222 80.8876 103.166 80.8068C102.826 80.3165 102.205 80.0713 101.63 79.8824C101.04 79.6967 100.43 79.5847 99.8227 79.4991C98.6055 79.3356 97.3898 79.2923 96.1988 79.3117C93.8194 79.3643 91.5109 79.628 89.4155 80.2501C88.8948 80.4119 88.3887 80.6003 87.9193 80.8423C87.4585 81.0877 87.0093 81.3883 86.7556 81.8151C86.5594 82.2698 86.4354 82.7738 86.3475 83.2656C86.2356 83.7546 86.1953 84.2516 86.1175 84.7317C85.8785 86.667 85.7748 88.4848 85.682 90.142C85.5067 93.4584 85.4566 96.1468 85.4144 98.0037C85.3974 98.9264 85.3841 99.6457 85.3749 100.143C85.3699 100.381 85.366 100.566 85.3632 100.699C85.3594 100.819 85.3534 100.888 85.3534 100.888C85.3534 100.888 85.3477 100.829 85.3443 100.699C85.3427 100.566 85.3405 100.381 85.3376 100.142C85.3388 99.6453 85.3404 98.9258 85.3424 98.0027C85.3625 96.1449 85.3926 93.4555 85.5515 90.1353C85.6359 88.4759 85.732 86.6566 85.9653 84.7128C86.042 84.2288 86.0805 83.732 86.1922 83.2354C86.2818 82.7355 86.3981 82.2337 86.6142 81.7349C86.8984 81.2572 87.3689 80.9499 87.8421 80.6945C88.324 80.4445 88.838 80.2523 89.3652 80.0872C91.4846 79.4535 93.8015 79.1863 96.1957 79.1304C97.3939 79.1098 98.617 79.1522 99.8477 79.3167C100.462 79.4031 101.08 79.516 101.685 79.7062C101.987 79.8019 102.287 79.9163 102.572 80.0689C102.852 80.2261 103.134 80.4164 103.321 80.7068C103.386 80.8013 103.433 80.911 103.463 81.0236C103.492 81.1347 103.499 81.2381 103.517 81.3456C103.548 81.5585 103.587 81.7712 103.598 81.9829C103.635 82.4067 103.669 82.8285 103.683 83.2483C103.705 83.6682 103.719 84.086 103.726 84.5016C103.737 84.9173 103.746 85.3309 103.747 85.7421C103.765 87.387 103.749 88.9955 103.722 90.5588C103.669 93.6856 103.572 96.6318 103.464 99.3294L103.462 99.3997L103.392 99.4055C97.9717 99.8578 93.4557 100.235 90.2864 100.499C88.7182 100.626 87.4837 100.726 86.633 100.795C86.2197 100.827 85.9 100.852 85.6759 100.869C85.5734 100.876 85.4937 100.882 85.4328 100.886C85.3787 100.889 85.3662 100.493 85.3676 100.491Z" fill="#455A64"/>
<path d="M107.989 99.3742C106.245 93.9103 103.479 90.7831 100.197 90.5691C96.9266 90.3514 93.7663 93.0949 91.3268 98.2859C89.0938 103.038 87.6179 109.42 87.1713 116.259C86.7243 123.097 87.3574 129.618 88.953 134.62C90.6964 140.084 93.4631 143.211 96.7444 143.425C96.8637 143.433 96.9826 143.436 97.1019 143.436C100.254 143.436 103.265 140.71 105.615 135.708C107.848 130.956 109.324 124.573 109.77 117.735C110.217 110.897 109.584 104.376 107.989 99.3742ZM106.724 117.536C106.301 124.002 104.926 129.995 102.851 134.41C101.037 138.27 98.8326 140.504 96.9432 140.378C95.058 140.255 93.1583 137.756 91.8619 133.692C90.3793 129.044 89.7955 122.924 90.218 116.458C90.6404 109.992 92.0156 103.999 94.0903 99.5843C95.8568 95.8253 97.997 93.6111 99.8491 93.6111C99.8991 93.6111 99.9488 93.6124 99.9985 93.6158C101.884 93.739 103.783 96.2384 105.08 100.302C106.562 104.949 107.146 111.07 106.724 117.536Z" fill="#455A64"/>
<path d="M106.724 117.536C106.724 117.536 106.723 117.444 106.73 117.266C106.738 117.082 106.75 116.817 106.765 116.472C106.791 115.774 106.829 114.745 106.821 113.419C106.814 112.094 106.765 110.471 106.597 108.596C106.513 107.658 106.398 106.658 106.231 105.604C106.067 104.55 105.859 103.44 105.572 102.292C105.283 101.145 104.934 99.9516 104.452 98.7543C103.965 97.5636 103.373 96.3398 102.493 95.2691C102.051 94.7454 101.54 94.236 100.897 93.9414C100.583 93.7782 100.231 93.7082 99.8795 93.6889C99.5251 93.694 99.1708 93.7693 98.8333 93.9044C98.1625 94.1893 97.5687 94.6629 97.0391 95.2005C96.5093 95.7419 96.0406 96.357 95.612 97.0082C93.9085 99.6323 92.7769 102.766 91.9169 106.053C91.0722 109.353 90.5487 112.857 90.3064 116.462C90.0773 120.069 90.1404 123.612 90.5485 126.995C90.9729 130.367 91.6894 133.621 93.0352 136.446C93.3747 137.148 93.7636 137.816 94.216 138.424C94.6662 139.03 95.1999 139.572 95.8287 139.939C96.4527 140.315 97.2112 140.407 97.8787 140.173C98.5547 139.965 99.1278 139.526 99.6343 139.064C100.645 138.116 101.391 136.98 102.028 135.862C102.662 134.737 103.163 133.6 103.599 132.5C104.033 131.399 104.383 130.325 104.683 129.302C104.986 128.279 105.23 127.302 105.435 126.383C105.846 124.546 106.105 122.944 106.284 121.63C106.465 120.317 106.562 119.292 106.627 118.597C106.656 118.253 106.679 117.989 106.695 117.806C106.711 117.627 106.724 117.536 106.724 117.536C106.724 117.536 106.723 117.628 106.713 117.807C106.701 117.991 106.684 118.255 106.662 118.6C106.609 119.296 106.523 120.323 106.352 121.639C106.184 122.956 105.934 124.562 105.531 126.405C105.33 127.326 105.09 128.306 104.791 129.333C104.495 130.361 104.147 131.439 103.715 132.545C103.281 133.651 102.782 134.795 102.147 135.929C101.508 137.056 100.761 138.204 99.7341 139.171C99.2184 139.643 98.6339 140.096 97.9246 140.317C97.226 140.566 96.4016 140.467 95.752 140.074C95.0944 139.691 94.5482 139.135 94.0887 138.519C93.6272 137.902 93.2328 137.225 92.8888 136.517C91.5264 133.666 90.8055 130.401 90.3767 127.016C89.9647 123.621 89.9004 120.067 90.13 116.45C90.3731 112.835 90.8991 109.322 91.7493 106.01C92.6154 102.71 93.7528 99.5658 95.4762 96.9185C95.91 96.2614 96.3851 95.6394 96.9253 95.0891C97.4657 94.5428 98.0735 94.057 98.7746 93.7606C99.1278 93.6198 99.5031 93.5397 99.8816 93.5356C100.258 93.5558 100.633 93.6337 100.961 93.8046C101.635 94.1166 102.156 94.641 102.606 95.1756C103.499 96.2684 104.091 97.5033 104.578 98.7036C105.061 99.9102 105.407 101.11 105.693 102.262C105.978 103.416 106.182 104.53 106.342 105.587C106.505 106.644 106.616 107.648 106.695 108.587C106.855 110.467 106.893 112.092 106.889 113.419C106.887 114.746 106.839 115.776 106.801 116.474C106.778 116.819 106.76 117.083 106.748 117.267C106.735 117.445 106.724 117.536 106.724 117.536Z" fill="#263238"/>
<path d="M107.989 99.3743C107.989 99.3743 108.133 99.7839 108.362 100.578C108.592 101.372 108.885 102.557 109.167 104.102C109.735 107.187 110.177 111.744 109.854 117.355C109.688 120.158 109.344 123.223 108.668 126.458C108.329 128.074 107.906 129.732 107.369 131.408C106.834 133.085 106.178 134.781 105.344 136.444C104.506 138.1 103.483 139.741 102.105 141.133C101.415 141.823 100.625 142.442 99.723 142.884C99.2773 143.115 98.7927 143.267 98.3015 143.392C97.8031 143.485 97.293 143.544 96.7802 143.513C95.7546 143.452 94.7514 143.087 93.8825 142.52C93.0068 141.955 92.2749 141.187 91.6429 140.352C90.3773 138.668 89.5386 136.684 88.8702 134.65C87.5812 130.546 87.1032 126.344 86.9735 122.31C86.8629 118.267 87.1309 114.362 87.6969 110.691C88.2621 107.02 89.1263 103.577 90.3149 100.491C90.9069 98.948 91.58 97.4938 92.3646 96.1725C93.1514 94.8564 94.0223 93.6463 95.0557 92.6826C96.0715 91.7096 97.2536 90.9753 98.4972 90.6715C99.7411 90.3585 100.993 90.5245 102.026 90.9579C103.058 91.4125 103.879 92.0916 104.528 92.7927C105.177 93.4982 105.671 94.2259 106.076 94.8988C106.864 96.261 107.31 97.403 107.593 98.1782C107.868 98.9572 107.989 99.3743 107.989 99.3743C107.989 99.3743 107.948 99.2735 107.877 99.0741C107.803 98.8759 107.71 98.5747 107.559 98.1906C107.266 97.4205 106.81 96.2849 106.017 94.934C105.609 94.2669 105.114 93.5463 104.466 92.8501C103.819 92.1583 103.004 91.4917 101.988 91.0488C100.97 90.6274 99.7426 90.4697 98.5241 90.7806C97.3058 91.0827 96.1439 91.8077 95.1417 92.7732C94.1225 93.7288 93.2608 94.9319 92.4821 96.2416C91.7054 97.5565 91.0383 99.0054 90.4516 100.543C89.2736 103.619 88.417 107.054 87.8578 110.716C87.2977 114.377 87.0338 118.274 87.1465 122.305C87.278 126.327 87.7567 130.516 89.0385 134.596C89.7025 136.618 90.536 138.587 91.7834 140.246C92.4058 141.069 93.1247 141.824 93.9783 142.374C94.8256 142.927 95.7965 143.281 96.7903 143.34C97.2869 143.37 97.7812 143.313 98.2648 143.224C98.7416 143.102 99.2129 142.955 99.6481 142.73C100.528 142.3 101.305 141.693 101.986 141.014C103.346 139.642 104.364 138.016 105.198 136.37C106.03 134.718 106.686 133.031 107.221 131.361C107.759 129.691 108.183 128.039 108.524 126.428C109.205 123.203 109.556 120.144 109.73 117.348C110.068 111.748 109.645 107.198 109.099 104.114C108.828 102.57 108.546 101.384 108.327 100.588C108.227 100.187 108.127 99.8881 108.073 99.6836C108.014 99.48 107.989 99.3743 107.989 99.3743Z" fill="#263238"/>
<path d="M100.712 140.426C100.624 140.426 100.536 140.423 100.448 140.418C95.2254 140.077 91.7928 129.733 92.6326 116.87C93.0282 110.817 94.3289 105.179 96.2952 100.994C98.3305 96.664 100.873 94.3764 103.445 94.5397C108.667 94.8809 112.099 105.224 111.259 118.087C110.864 124.141 109.563 129.779 107.597 133.963C105.631 138.145 103.196 140.426 100.712 140.426ZM103.188 95.5492C101.145 95.5492 98.9798 97.6752 97.2166 101.427C95.303 105.499 94.0357 111.007 93.6484 116.936C92.8722 128.82 96.0163 139.108 100.514 139.402C102.608 139.545 104.857 137.399 106.675 133.53C108.589 129.458 109.856 123.95 110.244 118.021C111.02 106.137 107.876 95.8494 103.378 95.5555C103.315 95.5512 103.251 95.5492 103.188 95.5492Z" fill="white"/>
<path d="M103.188 95.5494C103.188 95.5494 103.276 95.5394 103.446 95.5557C103.532 95.5662 103.638 95.579 103.762 95.5942C103.887 95.6169 104.028 95.6619 104.19 95.7031C104.826 95.9073 105.686 96.4677 106.465 97.4741C107.241 98.4789 107.966 99.8708 108.555 101.57C109.144 103.269 109.624 105.268 109.95 107.507C110.592 111.982 110.667 117.428 109.726 123.34C109.489 124.816 109.179 126.32 108.78 127.835C108.381 129.349 107.898 130.878 107.272 132.384C106.652 133.889 105.897 135.382 104.891 136.742C104.384 137.416 103.806 138.054 103.117 138.576C102.776 138.839 102.399 139.063 101.993 139.227C101.592 139.4 101.15 139.493 100.707 139.491C100.264 139.491 99.8212 139.4 99.4222 139.216C99.2146 139.141 99.0341 139.015 98.8426 138.91C98.6697 138.779 98.4815 138.666 98.3255 138.516C97.6702 137.949 97.1521 137.256 96.7172 136.532C95.8555 135.074 95.2893 133.497 94.8445 131.931C93.976 128.785 93.6185 125.643 93.4939 122.656C93.375 119.666 93.5216 116.819 93.8243 114.177C94.1287 111.535 94.5957 109.094 95.1909 106.911C96.3653 102.548 98.0536 99.1868 99.8045 97.3381C100.667 96.4064 101.548 95.8908 102.187 95.702C102.267 95.6777 102.342 95.6548 102.412 95.6333C102.484 95.6202 102.552 95.608 102.614 95.5967C102.739 95.5715 102.844 95.5564 102.93 95.557C103.101 95.549 103.188 95.5494 103.188 95.5494C103.191 95.5705 102.83 95.5322 102.198 95.7359C101.568 95.9338 100.703 96.4528 99.8547 97.385C98.132 99.2341 96.467 102.589 95.3115 106.944C94.7258 109.122 94.2672 111.558 93.9699 114.194C93.6743 116.83 93.5336 119.669 93.6566 122.65C93.7851 125.626 94.1454 128.758 95.0112 131.885C95.4539 133.44 96.018 135.005 96.868 136.442C97.2964 137.155 97.8058 137.833 98.4401 138.382C98.5914 138.528 98.7723 138.635 98.9387 138.762C99.1219 138.861 99.295 138.983 99.4923 139.054C99.8718 139.229 100.29 139.314 100.707 139.314C101.124 139.316 101.542 139.23 101.927 139.064C102.315 138.907 102.679 138.69 103.011 138.435C103.681 137.928 104.25 137.302 104.75 136.636C105.744 135.295 106.495 133.813 107.112 132.317C108.346 129.318 109.079 126.252 109.565 123.314C110.513 117.421 110.451 111.988 109.826 107.524C109.51 105.291 109.04 103.297 108.462 101.602C107.884 99.9073 107.172 98.5193 106.411 97.5163C105.646 96.5118 104.804 95.9499 104.178 95.7368C104.019 95.6934 103.88 95.6459 103.757 95.6206C103.634 95.6022 103.53 95.5866 103.444 95.5737C103.276 95.5516 103.188 95.5555 103.188 95.5494Z" fill="#263238"/>
<path d="M100.712 140.427C100.71 140.405 101.09 140.441 101.774 140.264C102.116 140.177 102.523 140.011 102.974 139.761C103.417 139.499 103.898 139.144 104.383 138.681C105.351 137.752 106.31 136.396 107.18 134.701C108.04 133 108.82 130.963 109.464 128.65C110.731 124.023 111.505 118.288 111.253 111.942C111.107 108.776 110.707 105.439 109.698 102.138C109.19 100.494 108.514 98.8524 107.511 97.3881C107.006 96.663 106.408 95.9855 105.683 95.4641C104.954 94.9588 104.086 94.6112 103.183 94.6272C102.28 94.6101 101.413 94.9577 100.661 95.4284C99.911 95.9167 99.2691 96.5509 98.7039 97.2322C97.5727 98.6037 96.748 100.173 96.0514 101.747C94.6842 104.918 93.8827 108.179 93.3518 111.305C92.3324 117.575 92.3976 123.363 93.1081 128.107C93.4666 130.481 94.0126 132.595 94.694 134.374C95.3712 136.154 96.2119 137.595 97.1171 138.583C98.0111 139.586 98.9732 140.086 99.6511 140.261C99.9894 140.364 100.26 140.377 100.439 140.408C100.619 140.418 100.712 140.427 100.712 140.427C100.712 140.427 100.619 140.431 100.438 140.426C100.258 140.401 99.9846 140.393 99.6418 140.295C98.9552 140.13 97.9758 139.634 97.0664 138.63C96.1456 137.64 95.291 136.195 94.6019 134.41C93.9086 132.626 93.3522 130.506 92.9847 128.126C92.2563 123.369 92.1777 117.568 93.1911 111.278C93.7195 108.142 94.5197 104.869 95.8927 101.678C96.5928 100.094 97.4217 98.512 98.5684 97.1202C99.1417 96.4288 99.7947 95.7822 100.565 95.2801C101.338 94.7958 102.239 94.4333 103.183 94.4505C104.127 94.434 105.033 94.798 105.785 95.32C106.533 95.858 107.142 96.5508 107.656 97.2878C108.674 98.7758 109.352 100.432 109.863 102.087C110.877 105.41 111.273 108.759 111.415 111.935C111.66 118.301 110.87 124.047 109.584 128.684C108.931 131.001 108.14 133.042 107.268 134.746C106.386 136.444 105.413 137.803 104.43 138.731C103.938 139.193 103.45 139.547 103 139.807C102.542 140.054 102.13 140.216 101.784 140.298C101.439 140.382 101.169 140.419 100.987 140.42C100.805 140.427 100.712 140.427 100.712 140.427Z" fill="#263238"/>
<path d="M101.537 117.452C101.332 120.594 100.166 123.075 98.933 122.994C97.6999 122.914 96.8666 120.302 97.0718 117.16C97.277 114.019 98.443 111.538 99.6762 111.618C100.909 111.699 101.743 114.311 101.537 117.452Z" fill="#263238"/>
</svg>
