<svg width="50" height="50" viewBox="0 0 50 50" fill="none" xmlns="http://www.w3.org/2000/svg">
<circle cx="25" cy="25" r="25" fill="#CCE1E2"/>
<g clip-path="url(#clip0_146_5317)">
<path d="M29.8644 14.614C29.8644 13.9783 30.1147 13.3687 30.5602 12.9192C31.0057 12.4697 31.61 12.2172 32.24 12.2172C32.8701 12.2172 33.4743 12.4697 33.9198 12.9192C34.3653 13.3687 34.6156 13.9783 34.6156 14.614C34.6156 15.2497 34.3653 15.8593 33.9198 16.3088C33.4743 16.7583 32.8701 17.0108 32.24 17.0108C31.61 17.0108 31.0057 16.7583 30.5602 16.3088C30.1147 15.8593 29.8644 15.2497 29.8644 14.614ZM24.1482 18.2741C23.881 18.1492 23.5692 18.1792 23.3366 18.359L21.3124 19.8919C20.6146 20.4212 19.6198 20.2764 19.0952 19.5723C18.5706 18.8683 18.7141 17.8646 19.412 17.3353L21.4361 15.8024C22.6091 14.9136 24.173 14.7538 25.4993 15.383L29.9733 17.5051C31.4135 18.1892 31.7946 20.0816 30.7256 21.275L28.8301 23.4022H33.6505C35.1501 23.4022 36.2735 24.7853 35.9815 26.2683L34.5859 33.3039C34.4127 34.1677 33.5812 34.7319 32.7201 34.5572C31.8589 34.3824 31.3046 33.5435 31.4779 32.6747L32.6854 26.5979H29.2062C29.6318 27.5766 29.8644 28.6551 29.8644 29.7936C29.8644 34.2076 26.3209 37.7828 21.9459 37.7828C17.5709 37.7828 14.0273 34.2076 14.0273 29.7936C14.0273 25.3795 17.5709 21.8043 21.9459 21.8043C22.4952 21.8043 23.0347 21.8593 23.5494 21.9691L26.2318 19.2627L24.1482 18.2741ZM21.9459 34.5871C22.5698 34.5871 23.1876 34.4631 23.7641 34.2222C24.3405 33.9813 24.8643 33.6283 25.3055 33.1831C25.7466 32.738 26.0966 32.2096 26.3354 31.628C26.5741 31.0464 26.697 30.4231 26.697 29.7936C26.697 29.1641 26.5741 28.5407 26.3354 27.9592C26.0966 27.3776 25.7466 26.8492 25.3055 26.404C24.8643 25.9589 24.3405 25.6058 23.7641 25.3649C23.1876 25.124 22.5698 25 21.9459 25C21.322 25 20.7042 25.124 20.1277 25.3649C19.5513 25.6058 19.0275 25.9589 18.5863 26.404C18.1452 26.8492 17.7952 27.3776 17.5564 27.9592C17.3177 28.5407 17.1948 29.1641 17.1948 29.7936C17.1948 30.4231 17.3177 31.0464 17.5564 31.628C17.7952 32.2096 18.1452 32.738 18.5863 33.1831C19.0275 33.6283 19.5513 33.9813 20.1277 34.2222C20.7042 34.4631 21.322 34.5871 21.9459 34.5871Z" fill="#01676C"/>
</g>
<defs>
<clipPath id="clip0_146_5317">
<rect width="22.1719" height="25.5656" fill="white" transform="translate(14.0273 12.2172)"/>
</clipPath>
</defs>
</svg>
